<svg width="42" height="42" viewBox="0 0 42 42" fill="none" xmlns="http://www.w3.org/2000/svg">
<circle cx="20.7151" cy="21.0237" r="20.4808" fill="white"/>
<path fill-rule="evenodd" clip-rule="evenodd" d="M29.6785 21.0775C29.6785 16.1293 25.6663 12.1172 20.7181 12.1172C15.77 12.1172 11.7578 16.1293 11.7578 21.0775C11.7578 25.5497 15.0339 29.2566 19.3181 29.9295V23.6684H17.0424V21.0775H19.3181V19.1031C19.3181 16.8578 20.6561 15.6165 22.7026 15.6165C23.6831 15.6165 24.7087 15.7917 24.7087 15.7917V17.997H23.5783C22.4658 17.997 22.1178 18.6874 22.1178 19.3971V21.0779H24.6027L24.2059 23.6688H22.1178V29.9303C26.4024 29.2578 29.6785 25.5509 29.6785 21.0775Z" fill="#010101"/>
</svg>
