<svg width="42" height="42" viewBox="0 0 42 42" fill="none" xmlns="http://www.w3.org/2000/svg">
<circle cx="21.0628" cy="21.0237" r="20.4808" fill="white"/>
<path d="M24.7952 13.5562C25.7846 13.5592 26.7326 13.9535 27.4321 14.6531C28.1317 15.3527 28.526 16.3006 28.529 17.29V24.7567C28.526 25.746 28.1317 26.694 27.4321 27.3936C26.7326 28.0931 25.7846 28.4875 24.7952 28.4904H17.3286C16.3392 28.4875 15.3912 28.0931 14.6917 27.3936C13.9921 26.694 13.5978 25.746 13.5948 24.7567V17.29C13.5978 16.3006 13.9921 15.3527 14.6917 14.6531C15.3912 13.9535 16.3392 13.5592 17.3286 13.5562H24.7952ZM24.7952 12.063H17.3286C14.4537 12.063 12.1016 14.4151 12.1016 17.29V24.7567C12.1016 27.6316 14.4537 29.9837 17.3286 29.9837H24.7952C27.6701 29.9837 30.0222 27.6316 30.0222 24.7567V17.29C30.0222 14.4151 27.6701 12.063 24.7952 12.063Z" fill="black"/>
<path d="M25.9169 17.2899C25.6954 17.2899 25.4788 17.2242 25.2947 17.1011C25.1105 16.9781 24.9669 16.8031 24.8821 16.5985C24.7974 16.3938 24.7752 16.1686 24.8184 15.9513C24.8616 15.7341 24.9683 15.5345 25.1249 15.3779C25.2816 15.2212 25.4811 15.1145 25.6984 15.0713C25.9157 15.0281 26.1409 15.0503 26.3455 15.1351C26.5502 15.2198 26.7251 15.3634 26.8482 15.5476C26.9713 15.7318 27.037 15.9483 27.037 16.1698C27.0373 16.317 27.0085 16.4628 26.9523 16.5988C26.8962 16.7349 26.8137 16.8585 26.7096 16.9625C26.6055 17.0666 26.4819 17.1491 26.3459 17.2053C26.2099 17.2615 26.0641 17.2902 25.9169 17.2899Z" fill="black"/>
<path d="M21.0622 18.0367C21.653 18.0367 22.2304 18.2119 22.7216 18.5401C23.2128 18.8683 23.5957 19.3348 23.8217 19.8806C24.0478 20.4264 24.107 21.0269 23.9917 21.6063C23.8765 22.1857 23.592 22.718 23.1743 23.1357C22.7565 23.5534 22.2243 23.8379 21.6449 23.9531C21.0655 24.0684 20.4649 24.0092 19.9192 23.7832C19.3734 23.5571 18.9069 23.1743 18.5787 22.6831C18.2505 22.1919 18.0753 21.6144 18.0753 21.0236C18.0761 20.2317 18.3911 19.4725 18.9511 18.9125C19.511 18.3525 20.2703 18.0376 21.0622 18.0367ZM21.0622 16.5435C20.1761 16.5435 19.3099 16.8062 18.5732 17.2985C17.8364 17.7908 17.2622 18.4905 16.9231 19.3091C16.584 20.1278 16.4953 21.0286 16.6681 21.8977C16.841 22.7667 17.2677 23.565 17.8942 24.1916C18.5208 24.8181 19.3191 25.2448 20.1882 25.4177C21.0572 25.5906 21.958 25.5019 22.7767 25.1628C23.5953 24.8237 24.295 24.2494 24.7873 23.5127C25.2796 22.7759 25.5424 21.9097 25.5424 21.0236C25.5424 19.8354 25.0704 18.6959 24.2302 17.8557C23.39 17.0155 22.2504 16.5435 21.0622 16.5435Z" fill="black"/>
</svg>
