<svg width="42" height="42" viewBox="0 0 42 42" fill="none" xmlns="http://www.w3.org/2000/svg">
<circle cx="21.3694" cy="21.0237" r="20.4808" fill="white"/>
<path d="M28.8976 12.063H13.9414C13.1242 12.063 12.4102 12.651 12.4102 13.4586V28.448C12.4102 29.26 13.1242 29.9837 13.9414 29.9837H28.8932C29.7148 29.9837 30.3308 29.2552 30.3308 28.448V13.4586C30.3356 12.651 29.7148 12.063 28.8976 12.063ZM17.9652 27.0007H15.3979V19.0185H17.9652V27.0007ZM16.7703 17.8048H16.7519C15.9303 17.8048 15.3983 17.1932 15.3983 16.4276C15.3983 15.6479 15.9443 15.0507 16.7843 15.0507C17.6244 15.0507 18.1384 15.6435 18.1568 16.4276C18.1564 17.1932 17.6244 17.8048 16.7703 17.8048ZM27.3479 27.0007H24.7806V22.6362C24.7806 21.5905 24.407 20.8761 23.4782 20.8761C22.7685 20.8761 22.3485 21.3561 22.1617 21.8238C22.0917 21.9918 22.0729 22.2206 22.0729 22.4542V27.0007H19.5056V19.0185H22.0729V20.1293C22.4465 19.5973 23.0302 18.8316 24.3882 18.8316C26.0735 18.8316 27.3483 19.9425 27.3483 22.3374L27.3479 27.0007Z" fill="black"/>
</svg>
