<svg width="42" height="42" viewBox="0 0 42 42" fill="none" xmlns="http://www.w3.org/2000/svg">
<circle cx="21.0237" cy="21.0238" r="20.4808" fill="white"/>
<path d="M30.6226 15.1633C29.9024 15.4763 29.1403 15.6825 28.3605 15.7754C29.18 15.2955 29.7963 14.5331 30.0938 13.6313C29.319 14.0843 28.4727 14.4022 27.5913 14.5713C27.2201 14.1823 26.7737 13.8729 26.2792 13.6617C25.7847 13.4506 25.2524 13.3423 24.7148 13.3433C22.5379 13.3433 20.7762 15.0793 20.7762 17.2194C20.7747 17.5171 20.8088 17.8139 20.8778 18.1034C19.3168 18.0303 17.7883 17.6321 16.3901 16.9343C14.9918 16.2365 13.7546 15.2546 12.7575 14.0513C12.4077 14.641 12.2228 15.3138 12.2219 15.9994C12.2219 17.3434 12.9231 18.5315 13.982 19.2275C13.3546 19.2126 12.7402 19.0466 12.1907 18.7435V18.7915C12.1907 20.6715 13.5508 22.2356 15.3508 22.5916C15.0123 22.6819 14.6635 22.7276 14.3132 22.7276C14.0646 22.7281 13.8166 22.7039 13.5728 22.6556C14.0732 24.1957 15.5296 25.3157 17.2549 25.3477C15.853 26.4281 14.1318 27.0121 12.3619 27.0078C12.0477 27.0073 11.7339 26.9886 11.4219 26.9518C13.2224 28.1015 15.3154 28.7097 17.4517 28.7038C24.7064 28.7038 28.6697 22.7956 28.6697 17.6714C28.6697 17.5034 28.6653 17.3354 28.6573 17.1714C29.4266 16.6242 30.0921 15.9442 30.6226 15.1633Z" fill="black"/>
</svg>
