<svg width="53" height="54" viewBox="0 0 53 54" fill="none" xmlns="http://www.w3.org/2000/svg">
<path d="M40.8457 15.2092C40.4577 15.2092 40.0698 15.0741 39.7581 14.7951C35.992 11.4365 31.1601 9.58613 26.1538 9.58613C21.1475 9.58613 16.3156 11.4365 12.5494 14.7951C11.876 15.3923 10.8407 15.34 10.2413 14.6622C9.6398 13.9887 9.69865 12.9534 10.3743 12.3541C14.7398 8.46151 20.3433 6.31689 26.1538 6.31689C31.9643 6.31689 37.5678 8.46151 41.9333 12.3541C42.6089 12.9556 42.6678 13.9887 42.0662 14.6622C41.7437 15.0239 41.2947 15.2092 40.8457 15.2092V15.2092Z" fill="#F8F9FD"/>
<path d="M43.05 23.515C42.5291 23.515 42.0169 23.2666 41.7009 22.8045C38.1571 17.6435 32.3466 14.5617 26.1568 14.5617C19.9671 14.5617 14.1566 17.6435 10.6127 22.8067C10.1027 23.5477 9.08924 23.7461 8.3395 23.2295C7.59629 22.7195 7.40668 21.7017 7.91886 20.9585C12.0708 14.9039 18.8882 11.2925 26.1568 11.2925C33.4254 11.2925 40.2428 14.9061 44.3948 20.9563C44.9048 21.6995 44.7151 22.7174 43.9741 23.2274C43.6908 23.4235 43.366 23.515 43.05 23.515Z" fill="#F8F9FD"/>
<path d="M22.0508 47.7271C21.6367 47.7271 21.2204 47.5702 20.9022 47.2563C20.6145 46.973 13.8516 40.2166 13.8516 33.6563C13.8516 26.8105 19.37 21.2419 26.1569 21.2419C32.9439 21.2419 38.4623 26.8105 38.4623 33.6563C38.4623 34.5586 37.73 35.2909 36.8277 35.2909C35.9254 35.2909 35.1931 34.5586 35.1931 33.6563C35.1931 28.6151 31.1414 24.5112 26.1569 24.5112C21.1725 24.5112 17.1208 28.613 17.1208 33.6563C17.1208 38.8478 23.1427 44.8719 23.2016 44.9308C23.8423 45.5672 23.8489 46.6003 23.2146 47.2432C22.8943 47.5658 22.4736 47.7271 22.0508 47.7271Z" fill="#F8F9FD"/>
<path d="M30.2549 47.7271C27.0336 47.7271 19.5711 41.7574 18.8497 35.1078C18.5925 32.7104 19.3313 30.3413 20.8766 28.6108C22.2453 27.0764 24.1044 26.2264 26.1139 26.2155C28.1452 26.2569 29.9367 26.9674 31.3359 28.3601C32.7526 29.7681 33.5329 31.649 33.5329 33.6541V34.4823C33.5329 36.324 35.0106 37.8235 36.8239 37.8235C38.6372 37.8235 40.1149 36.324 40.1149 34.4823V34.1924C40.1149 26.4683 34.3916 20.041 27.0859 19.5659C23.1868 19.3044 19.5035 20.636 16.6658 23.2928C13.8216 25.9583 12.1892 29.7354 12.1892 33.6541C12.1892 36.9299 13.3247 40.1206 15.3821 42.6401C15.9531 43.3398 15.8485 44.3685 15.1511 44.9395C14.4515 45.5127 13.4227 45.4059 12.8495 44.7085C10.317 41.6071 8.91992 37.6796 8.91992 33.6541C8.91992 28.8331 10.9294 24.1864 14.4297 20.9063C17.9343 17.624 22.5156 15.9894 27.293 16.3032C36.3139 16.8939 43.3776 24.7509 43.3776 34.1924V34.4823C43.3776 38.1264 40.4331 41.0927 36.8174 41.0927C33.2016 41.0927 30.2571 38.1286 30.2571 34.4823V33.6541C30.2571 32.5251 29.819 31.4681 29.0257 30.6769C28.2542 29.9076 27.232 29.4848 26.1488 29.4848C26.14 29.4848 26.1335 29.4848 26.127 29.4848C24.7539 29.4913 23.8385 30.1974 23.3111 30.7881C22.3935 31.8168 21.9402 33.2989 22.0971 34.7569C22.642 39.7589 28.6639 44.4578 30.2549 44.4578C31.1572 44.4578 31.8895 45.1901 31.8895 46.0924C31.8895 46.9948 31.1572 47.7271 30.2549 47.7271Z" fill="#F8F9FD"/>
<path d="M35.0802 45.2406C30.2505 45.2406 24.416 39.7025 24.416 32.8263C24.416 31.924 25.1483 31.1917 26.0506 31.1917C26.9529 31.1917 27.6852 31.924 27.6852 32.8263C27.6852 37.874 32.1597 41.9714 35.0802 41.9714C35.9826 41.9714 36.7149 42.7037 36.7149 43.606C36.7149 44.5083 35.9826 45.2406 35.0802 45.2406Z" fill="#F8F9FD"/>
</svg>
