<svg width="170" height="64" viewBox="0 0 170 64" fill="none" xmlns="http://www.w3.org/2000/svg">
<path d="M71.5665 18.7357C70.2529 18.7357 69.0489 19.064 67.9105 19.677C66.7721 20.29 65.7869 21.1876 64.955 22.326H64.8894V19.1078H59.0223V41H64.8894V30.842C64.8894 29.1782 65.371 27.799 66.3561 26.7263C67.3413 25.6755 68.7205 25.1282 70.4719 25.1282C70.9097 25.1282 71.4351 25.1501 72.0262 25.1939V18.7576C71.9386 18.7576 71.7854 18.7357 71.5665 18.7357ZM88.9454 19.1078V21.5816H88.8578C87.2159 19.6989 85.0704 18.7357 82.3996 18.7357C80.9547 18.7357 79.5755 19.0203 78.3058 19.5895C77.036 20.1587 75.9414 20.9468 75.0219 21.9319C74.1025 22.939 73.4019 24.143 72.8765 25.5441C72.3511 26.9671 72.0884 28.4996 72.0884 30.1196C72.0884 31.7834 72.3511 33.3377 72.8765 34.7388C73.4019 36.1399 74.1244 37.344 75.0438 38.3073C75.9633 39.2705 77.0798 40.0367 78.3714 40.5622C79.6631 41.1095 81.0642 41.3722 82.5747 41.3722C85.3769 41.3722 87.5443 40.3651 89.1205 38.351H89.23V41H94.8125V19.1078H88.9454ZM83.6474 36.118C81.9836 36.118 80.6482 35.5707 79.5974 34.4542C78.5466 33.3596 78.0431 31.9147 78.0431 30.1415C78.0431 28.3025 78.5685 26.8358 79.6412 25.6974C80.7139 24.5809 82.0493 24.0117 83.6693 24.0117C85.2456 24.0117 86.5591 24.6028 87.6099 25.763C88.6608 26.9452 89.1862 28.3901 89.1862 30.1415C89.1862 31.9147 88.6389 33.3596 87.588 34.4542C86.5153 35.5707 85.2018 36.118 83.6474 36.118ZM111.141 18.7357C108.338 18.7357 106.127 19.6989 104.507 21.6254H104.42V19.1078H98.5525V49.8663H104.42V38.5481H104.507C106.062 40.4308 108.207 41.3722 110.965 41.3722C112.454 41.3722 113.855 41.1095 115.147 40.5622C116.438 40.0367 117.555 39.2705 118.474 38.3073C119.394 37.344 120.138 36.1399 120.664 34.7388C121.189 33.3377 121.452 31.7834 121.452 30.1196C121.452 28.8061 121.277 27.5801 120.948 26.3979C120.598 25.2157 120.116 24.1649 119.503 23.2454C118.89 22.326 118.146 21.516 117.314 20.8373C116.46 20.1587 115.497 19.6332 114.446 19.283C113.395 18.9327 112.279 18.7357 111.141 18.7357ZM109.893 36.118C108.82 36.118 107.857 35.8772 106.981 35.3956C106.105 34.914 105.427 34.1915 104.923 33.2721C104.42 32.3526 104.179 31.3237 104.179 30.1415C104.179 29.2877 104.31 28.4777 104.595 27.7115C104.879 26.9671 105.273 26.3104 105.777 25.763C106.259 25.2376 106.872 24.7998 107.572 24.4933C108.273 24.1868 109.061 24.0117 109.893 24.0117C111.491 24.0117 112.826 24.5809 113.899 25.6974C114.95 26.8358 115.497 28.3025 115.497 30.1415C115.497 31.9147 114.972 33.3596 113.921 34.4542C112.87 35.5707 111.535 36.118 109.893 36.118ZM137.145 19.1078L132.132 32.6591H132.066L126.702 19.1078H120.573L129.329 39.6427L125.433 49.8663H131.431L143.231 19.1078H137.145ZM159.8 7.98661V21.5816H159.69C158.027 19.6989 155.837 18.7357 153.079 18.7357C151.634 18.7357 150.255 19.0203 148.985 19.5895C147.715 20.1587 146.621 20.9468 145.701 21.9319C144.782 22.939 144.081 24.143 143.556 25.5441C143.03 26.9671 142.768 28.4996 142.768 30.1196C142.768 31.0828 142.855 32.0023 143.03 32.878C143.206 33.7537 143.446 34.5637 143.775 35.308C144.103 36.0524 144.497 36.7529 144.979 37.3878C145.439 38.0446 145.964 38.5919 146.577 39.0735C147.168 39.5551 147.803 39.9711 148.503 40.3213C149.204 40.6716 149.948 40.9343 150.758 41.1095C151.546 41.2846 152.378 41.3722 153.254 41.3722C156.122 41.3722 158.355 40.3651 159.953 38.351H160.084V41H165.667V7.98661H159.8ZM154.327 36.118C152.663 36.118 151.328 35.5707 150.277 34.4542C149.226 33.3596 148.722 31.9147 148.722 30.1415C148.722 28.3025 149.248 26.8358 150.32 25.6974C151.393 24.5809 152.729 24.0117 154.349 24.0117C156.012 24.0117 157.37 24.6028 158.464 25.763C159.559 26.9452 160.106 28.3901 160.106 30.1415C160.106 31.3237 159.844 32.3526 159.318 33.2721C158.793 34.1915 158.114 34.914 157.238 35.3956C156.363 35.8772 155.378 36.118 154.327 36.118Z" fill="#F8F9FD"/>
<path d="M40.8457 16.2092C40.4577 16.2092 40.0698 16.0741 39.7581 15.7951C35.992 12.4365 31.1601 10.5861 26.1538 10.5861C21.1475 10.5861 16.3156 12.4365 12.5494 15.7951C11.876 16.3923 10.8407 16.34 10.2413 15.6622C9.6398 14.9887 9.69865 13.9534 10.3743 13.3541C14.7398 9.46151 20.3433 7.31689 26.1538 7.31689C31.9643 7.31689 37.5678 9.46151 41.9333 13.3541C42.6089 13.9556 42.6678 14.9887 42.0662 15.6622C41.7437 16.0239 41.2947 16.2092 40.8457 16.2092V16.2092Z" fill="#F8F9FD"/>
<path d="M43.05 24.515C42.5291 24.515 42.0169 24.2666 41.7009 23.8045C38.1571 18.6435 32.3466 15.5617 26.1568 15.5617C19.9671 15.5617 14.1566 18.6435 10.6127 23.8067C10.1027 24.5477 9.08924 24.7461 8.3395 24.2295C7.59629 23.7195 7.40668 22.7017 7.91886 21.9585C12.0708 15.9039 18.8882 12.2925 26.1568 12.2925C33.4254 12.2925 40.2428 15.9061 44.3948 21.9563C44.9048 22.6995 44.7151 23.7174 43.9741 24.2274C43.6908 24.4235 43.366 24.515 43.05 24.515Z" fill="#F8F9FD"/>
<path d="M22.0508 48.7271C21.6367 48.7271 21.2204 48.5702 20.9022 48.2563C20.6145 47.973 13.8516 41.2166 13.8516 34.6563C13.8516 27.8105 19.37 22.2419 26.1569 22.2419C32.9439 22.2419 38.4623 27.8105 38.4623 34.6563C38.4623 35.5586 37.73 36.2909 36.8277 36.2909C35.9254 36.2909 35.1931 35.5586 35.1931 34.6563C35.1931 29.6151 31.1414 25.5112 26.1569 25.5112C21.1725 25.5112 17.1208 29.613 17.1208 34.6563C17.1208 39.8478 23.1427 45.8719 23.2016 45.9308C23.8423 46.5672 23.8489 47.6003 23.2146 48.2432C22.8943 48.5658 22.4736 48.7271 22.0508 48.7271Z" fill="#F8F9FD"/>
<path d="M30.2549 48.7271C27.0336 48.7271 19.5711 42.7574 18.8497 36.1078C18.5925 33.7104 19.3313 31.3413 20.8766 29.6108C22.2453 28.0764 24.1044 27.2264 26.1139 27.2155C28.1452 27.2569 29.9367 27.9674 31.3359 29.3601C32.7526 30.7681 33.5329 32.649 33.5329 34.6541V35.4823C33.5329 37.324 35.0106 38.8235 36.8239 38.8235C38.6372 38.8235 40.1149 37.324 40.1149 35.4823V35.1924C40.1149 27.4683 34.3916 21.041 27.0859 20.5659C23.1868 20.3044 19.5035 21.636 16.6658 24.2928C13.8216 26.9583 12.1892 30.7354 12.1892 34.6541C12.1892 37.9299 13.3247 41.1206 15.3821 43.6401C15.9531 44.3398 15.8485 45.3685 15.1511 45.9395C14.4515 46.5127 13.4227 46.4059 12.8495 45.7085C10.317 42.6071 8.91992 38.6796 8.91992 34.6541C8.91992 29.8331 10.9294 25.1864 14.4297 21.9063C17.9343 18.624 22.5156 16.9894 27.293 17.3032C36.3139 17.8939 43.3776 25.7509 43.3776 35.1924V35.4823C43.3776 39.1264 40.4331 42.0927 36.8174 42.0927C33.2016 42.0927 30.2571 39.1286 30.2571 35.4823V34.6541C30.2571 33.5251 29.819 32.4681 29.0257 31.6769C28.2542 30.9076 27.232 30.4848 26.1488 30.4848C26.14 30.4848 26.1335 30.4848 26.127 30.4848C24.7539 30.4913 23.8385 31.1974 23.3111 31.7881C22.3935 32.8168 21.9402 34.2989 22.0971 35.7569C22.642 40.7589 28.6639 45.4578 30.2549 45.4578C31.1572 45.4578 31.8895 46.1901 31.8895 47.0924C31.8895 47.9948 31.1572 48.7271 30.2549 48.7271Z" fill="#F8F9FD"/>
<path d="M35.0802 46.2406C30.2505 46.2406 24.416 40.7025 24.416 33.8263C24.416 32.924 25.1483 32.1917 26.0506 32.1917C26.9529 32.1917 27.6852 32.924 27.6852 33.8263C27.6852 38.874 32.1597 42.9714 35.0802 42.9714C35.9826 42.9714 36.7149 43.7037 36.7149 44.606C36.7149 45.5083 35.9826 46.2406 35.0802 46.2406Z" fill="#F8F9FD"/>
<path d="M61.9326 59.5122C64.4204 59.5122 66.3474 58.0454 66.75 55.8308H64.8374C64.4923 56.9956 63.3994 57.7434 61.9757 57.7434C60.0488 57.7434 58.812 56.3053 58.812 54.0764C58.812 51.833 60.0344 50.4237 61.9757 50.4237C63.3706 50.4237 64.4204 51.1427 64.7799 52.3651H66.7213C66.3618 50.1074 64.5067 48.6549 62.0189 48.6549C58.9415 48.6549 56.8851 50.8264 56.8851 54.0907C56.8851 57.3839 58.8696 59.5122 61.9326 59.5122ZM67.7249 55.7733C67.7249 57.9878 69.3211 59.5122 71.5213 59.5122C73.7215 59.5122 75.3177 57.9878 75.3177 55.7733C75.3177 53.5587 73.7215 52.0343 71.5213 52.0343C69.3211 52.0343 67.7249 53.5587 67.7249 55.7733ZM69.4793 55.7733C69.4793 54.479 70.3134 53.6018 71.5213 53.6018C72.7293 53.6018 73.5633 54.479 73.5633 55.7733C73.5633 57.0675 72.7293 57.9447 71.5213 57.9447C70.3134 57.9447 69.4793 57.0675 69.4793 55.7733ZM78.3706 59.3396H80.0962L83.0586 52.2357H81.2466L79.9524 55.5C79.6504 56.2766 79.3916 57.0243 79.2909 57.4701C79.2046 57.0819 78.9602 56.3485 78.6582 55.5L77.4214 52.2357H75.552L78.3706 59.3396ZM86.8941 59.5265C88.7492 59.5265 90.0434 58.5918 90.3454 57.0387H88.7204C88.5191 57.7146 87.8864 58.0885 86.9229 58.0885C85.7581 58.0885 85.0966 57.4558 84.9671 56.2047L90.3167 56.1903V55.6582C90.3167 53.4436 88.9649 52.02 86.8366 52.02C84.7514 52.02 83.299 53.5587 83.299 55.7876C83.299 57.9878 84.7802 59.5265 86.8941 59.5265ZM86.851 53.458C87.9007 53.458 88.5766 54.1051 88.5766 55.083H85.0103C85.1828 54.0188 85.8156 53.458 86.851 53.458ZM96.1787 52.2069C95.8911 52.135 95.6466 52.1062 95.4022 52.1062C94.4531 52.1062 93.7772 52.5808 93.4752 53.2854L93.3745 52.25H91.7208V59.3396H93.4752V55.8883C93.4752 54.5078 94.2661 53.8319 95.5316 53.8319H96.1787V52.2069Z" fill="#F8F9FD"/>
</svg>
