<svg width="71" height="41" viewBox="0 0 71 41" fill="none" xmlns="http://www.w3.org/2000/svg">
<path d="M7.032 21.288C5.704 21.288 4.56 21.096 3.6 20.712C2.656 20.312 1.936 19.712 1.44 18.912C0.944 18.096 0.696 17.056 0.696 15.792V15.264H4.8V15.792C4.8 16.528 4.976 17.072 5.328 17.424C5.696 17.76 6.232 17.928 6.936 17.928C7.624 17.928 8.144 17.712 8.496 17.28C8.864 16.848 9.048 16.184 9.048 15.288V4.512H13.344V15.312C13.344 16.672 13.096 17.8 12.6 18.696C12.104 19.576 11.384 20.232 10.44 20.664C9.496 21.08 8.36 21.288 7.032 21.288ZM19.7252 21.288C18.3652 21.288 17.3092 20.912 16.5572 20.16C15.8212 19.408 15.4532 18.256 15.4532 16.704V8.352H19.3892V16.152C19.3892 16.488 19.4292 16.784 19.5092 17.04C19.6052 17.296 19.7332 17.512 19.8932 17.688C20.0532 17.864 20.2532 17.992 20.4932 18.072C20.7492 18.152 21.0212 18.192 21.3092 18.192C21.7732 18.192 22.1812 18.088 22.5332 17.88C22.8852 17.656 23.1652 17.36 23.3732 16.992C23.5812 16.608 23.6852 16.192 23.6852 15.744V8.352H27.6212V21H24.3812L24.1412 19.2H23.9732C23.6852 19.616 23.3172 19.984 22.8692 20.304C22.4372 20.624 21.9492 20.864 21.4052 21.024C20.8772 21.2 20.3172 21.288 19.7252 21.288ZM29.5629 25.464V8.352H32.7789L33.1149 10.104H33.2829C33.7149 9.384 34.2589 8.864 34.9149 8.544C35.5869 8.224 36.3309 8.064 37.1469 8.064C38.2189 8.064 39.1389 8.304 39.9069 8.784C40.6909 9.264 41.2909 9.992 41.7069 10.968C42.1229 11.944 42.3309 13.184 42.3309 14.688C42.3309 16.176 42.1229 17.408 41.7069 18.384C41.2909 19.36 40.6989 20.088 39.9309 20.568C39.1629 21.048 38.2589 21.288 37.2189 21.288C36.7069 21.288 36.2269 21.232 35.7789 21.12C35.3309 21.008 34.9229 20.832 34.5549 20.592C34.2029 20.352 33.8989 20.056 33.6429 19.704H33.4989V25.464H29.5629ZM35.9229 18.216C36.5149 18.216 36.9869 18.096 37.3389 17.856C37.7069 17.616 37.9709 17.264 38.1309 16.8C38.2909 16.336 38.3709 15.768 38.3709 15.096V14.256C38.3709 13.584 38.2909 13.016 38.1309 12.552C37.9709 12.072 37.7069 11.72 37.3389 11.496C36.9869 11.256 36.5149 11.136 35.9229 11.136C35.3469 11.136 34.8749 11.272 34.5069 11.544C34.1549 11.8 33.8909 12.176 33.7149 12.672C33.5549 13.152 33.4749 13.72 33.4749 14.376V14.952C33.4749 15.432 33.5149 15.872 33.5949 16.272C33.6909 16.672 33.8349 17.016 34.0269 17.304C34.2349 17.592 34.4909 17.816 34.7949 17.976C35.1149 18.136 35.4909 18.216 35.9229 18.216ZM43.6464 6.648V3.624H47.5824V6.648H43.6464ZM43.6464 21V8.352H47.5824V21H43.6464ZM53.9205 21.288C53.1045 21.288 52.4085 21.168 51.8325 20.928C51.2725 20.672 50.8485 20.296 50.5605 19.8C50.2885 19.304 50.1525 18.704 50.1525 18V11.208H48.4965V8.352H50.2725L51.0885 4.656H54.0645V8.352H56.5365V11.208H54.0645V17.04C54.0645 17.488 54.1525 17.832 54.3285 18.072C54.5045 18.312 54.8245 18.432 55.2885 18.432H56.5365V20.88C56.3285 20.944 56.0645 21.008 55.7445 21.072C55.4405 21.152 55.1285 21.208 54.8085 21.24C54.4885 21.272 54.1925 21.288 53.9205 21.288ZM61.1629 21.288C60.6349 21.288 60.1149 21.232 59.6029 21.12C59.1069 21.024 58.6509 20.848 58.2349 20.592C57.8349 20.32 57.5149 19.952 57.2749 19.488C57.0349 19.024 56.9149 18.44 56.9149 17.736C56.9149 16.824 57.1069 16.08 57.4909 15.504C57.8749 14.928 58.4269 14.48 59.1469 14.16C59.8829 13.824 60.7629 13.592 61.7869 13.464C62.8269 13.336 63.9869 13.272 65.2669 13.272V12.48C65.2669 12.112 65.1949 11.808 65.0509 11.568C64.9069 11.312 64.6909 11.12 64.4029 10.992C64.1309 10.848 63.7629 10.776 63.2989 10.776C62.8829 10.776 62.5149 10.824 62.1949 10.92C61.8909 11.016 61.6589 11.16 61.4989 11.352C61.3389 11.528 61.2589 11.744 61.2589 12V12.216H57.4189C57.4029 12.136 57.3949 12.072 57.3949 12.024C57.3949 11.96 57.3949 11.88 57.3949 11.784C57.3949 11.032 57.6269 10.376 58.0909 9.816C58.5709 9.256 59.2509 8.824 60.1309 8.52C61.0109 8.216 62.0749 8.064 63.3229 8.064C64.4909 8.064 65.5069 8.208 66.3709 8.496C67.2509 8.784 67.9389 9.224 68.4349 9.816C68.9469 10.408 69.2029 11.184 69.2029 12.144V17.544C69.2029 17.816 69.2749 18.032 69.4189 18.192C69.5789 18.352 69.7709 18.432 69.9949 18.432H70.8109V20.856C70.6349 20.936 70.3549 21.024 69.9709 21.12C69.6029 21.232 69.1549 21.288 68.6269 21.288C68.0829 21.288 67.6029 21.216 67.1869 21.072C66.7869 20.944 66.4509 20.76 66.1789 20.52C65.9229 20.264 65.7469 19.968 65.6509 19.632H65.4829C65.1789 19.952 64.8189 20.24 64.4029 20.496C64.0029 20.752 63.5309 20.944 62.9869 21.072C62.4589 21.216 61.8509 21.288 61.1629 21.288ZM62.6269 18.576C63.0109 18.576 63.3629 18.52 63.6829 18.408C64.0029 18.296 64.2749 18.144 64.4989 17.952C64.7389 17.744 64.9229 17.496 65.0509 17.208C65.1949 16.92 65.2669 16.608 65.2669 16.272V15.432C64.3549 15.432 63.5709 15.496 62.9149 15.624C62.2589 15.752 61.7549 15.952 61.4029 16.224C61.0509 16.496 60.8749 16.84 60.8749 17.256C60.8749 17.56 60.9469 17.816 61.0909 18.024C61.2509 18.216 61.4589 18.36 61.7149 18.456C61.9709 18.536 62.2749 18.576 62.6269 18.576Z" fill="#6551F3"/>
<path d="M8.814 38.168C8.54333 38.168 8.27267 38.1353 8.002 38.07C7.73133 38.0047 7.47933 37.8973 7.246 37.748C7.01267 37.5987 6.826 37.3933 6.686 37.132C6.546 36.8613 6.476 36.5253 6.476 36.124C6.476 35.62 6.59733 35.2047 6.84 34.878C7.08267 34.5513 7.41867 34.2993 7.848 34.122C8.28667 33.9353 8.80467 33.8093 9.402 33.744C9.99933 33.6693 10.648 33.632 11.348 33.632V32.792C11.348 32.5213 11.3013 32.288 11.208 32.092C11.1147 31.896 10.9467 31.7467 10.704 31.644C10.4707 31.532 10.1347 31.476 9.696 31.476C9.276 31.476 8.94 31.532 8.688 31.644C8.44533 31.7467 8.27267 31.882 8.17 32.05C8.07667 32.218 8.03 32.4047 8.03 32.61V32.82H6.84C6.83067 32.7733 6.826 32.7267 6.826 32.68C6.826 32.6333 6.826 32.5773 6.826 32.512C6.826 32.064 6.94733 31.6907 7.19 31.392C7.442 31.084 7.792 30.8553 8.24 30.706C8.688 30.5473 9.20133 30.468 9.78 30.468C10.396 30.468 10.9093 30.5567 11.32 30.734C11.74 30.9113 12.0527 31.1633 12.258 31.49C12.4727 31.8167 12.58 32.2087 12.58 32.666V36.656C12.58 36.8333 12.622 36.9593 12.706 37.034C12.79 37.0993 12.8927 37.132 13.014 37.132H13.56V37.944C13.4293 38 13.2847 38.0467 13.126 38.084C12.9673 38.1307 12.7853 38.154 12.58 38.154C12.3373 38.154 12.1367 38.1027 11.978 38C11.8193 37.9067 11.698 37.776 11.614 37.608C11.53 37.4307 11.474 37.2347 11.446 37.02H11.348C11.18 37.2533 10.9653 37.4587 10.704 37.636C10.452 37.804 10.1673 37.9347 9.85 38.028C9.53267 38.1213 9.18733 38.168 8.814 38.168ZM9.122 37.132C9.42067 37.132 9.70067 37.0853 9.962 36.992C10.2327 36.8987 10.4707 36.768 10.676 36.6C10.8813 36.4227 11.0447 36.2127 11.166 35.97C11.2873 35.7273 11.348 35.4613 11.348 35.172V34.556C10.592 34.556 9.948 34.598 9.416 34.682C8.884 34.766 8.47333 34.9153 8.184 35.13C7.904 35.3447 7.764 35.648 7.764 36.04C7.764 36.292 7.82 36.4973 7.932 36.656C8.044 36.8147 8.20267 36.936 8.408 37.02C8.61333 37.0947 8.85133 37.132 9.122 37.132ZM17.3949 38.168C16.6856 38.168 16.0882 38.0327 15.6029 37.762C15.1269 37.482 14.7629 37.0573 14.5109 36.488C14.2682 35.9093 14.1469 35.186 14.1469 34.318C14.1469 33.45 14.2682 32.7313 14.5109 32.162C14.7629 31.5927 15.1316 31.168 15.6169 30.888C16.1116 30.608 16.7182 30.468 17.4369 30.468C17.9409 30.468 18.3749 30.5333 18.7389 30.664C19.1122 30.7947 19.4202 30.986 19.6629 31.238C19.9056 31.49 20.0829 31.7933 20.1949 32.148C20.3162 32.5027 20.3769 32.9087 20.3769 33.366H19.1309C19.1309 32.9367 19.0702 32.5867 18.9489 32.316C18.8369 32.036 18.6549 31.8307 18.4029 31.7C18.1509 31.56 17.8196 31.49 17.4089 31.49C16.9982 31.49 16.6436 31.5833 16.3449 31.77C16.0462 31.9473 15.8176 32.232 15.6589 32.624C15.5002 33.016 15.4209 33.534 15.4209 34.178V34.472C15.4209 35.0787 15.4956 35.5827 15.6449 35.984C15.8036 36.3853 16.0322 36.6793 16.3309 36.866C16.6296 37.0527 16.9936 37.146 17.4229 37.146C17.8429 37.146 18.1789 37.0713 18.4309 36.922C18.6922 36.7727 18.8789 36.558 18.9909 36.278C19.1122 35.998 19.1729 35.662 19.1729 35.27H20.3769C20.3769 35.6807 20.3162 36.0633 20.1949 36.418C20.0829 36.7727 19.9056 37.0807 19.6629 37.342C19.4202 37.6033 19.1122 37.8087 18.7389 37.958C18.3656 38.098 17.9176 38.168 17.3949 38.168ZM23.7027 38.168C23.432 38.168 23.1613 38.1353 22.8907 38.07C22.62 38.0047 22.368 37.8973 22.1347 37.748C21.9013 37.5987 21.7147 37.3933 21.5747 37.132C21.4347 36.8613 21.3647 36.5253 21.3647 36.124C21.3647 35.62 21.486 35.2047 21.7287 34.878C21.9713 34.5513 22.3073 34.2993 22.7367 34.122C23.1753 33.9353 23.6933 33.8093 24.2907 33.744C24.888 33.6693 25.5367 33.632 26.2367 33.632V32.792C26.2367 32.5213 26.19 32.288 26.0967 32.092C26.0033 31.896 25.8353 31.7467 25.5927 31.644C25.3593 31.532 25.0233 31.476 24.5847 31.476C24.1647 31.476 23.8287 31.532 23.5767 31.644C23.334 31.7467 23.1613 31.882 23.0587 32.05C22.9653 32.218 22.9187 32.4047 22.9187 32.61V32.82H21.7287C21.7193 32.7733 21.7147 32.7267 21.7147 32.68C21.7147 32.6333 21.7147 32.5773 21.7147 32.512C21.7147 32.064 21.836 31.6907 22.0787 31.392C22.3307 31.084 22.6807 30.8553 23.1287 30.706C23.5767 30.5473 24.09 30.468 24.6687 30.468C25.2847 30.468 25.798 30.5567 26.2087 30.734C26.6287 30.9113 26.9413 31.1633 27.1467 31.49C27.3613 31.8167 27.4687 32.2087 27.4687 32.666V36.656C27.4687 36.8333 27.5107 36.9593 27.5947 37.034C27.6787 37.0993 27.7813 37.132 27.9027 37.132H28.4487V37.944C28.318 38 28.1733 38.0467 28.0147 38.084C27.856 38.1307 27.674 38.154 27.4687 38.154C27.226 38.154 27.0253 38.1027 26.8667 38C26.708 37.9067 26.5867 37.776 26.5027 37.608C26.4187 37.4307 26.3627 37.2347 26.3347 37.02H26.2367C26.0687 37.2533 25.854 37.4587 25.5927 37.636C25.3407 37.804 25.056 37.9347 24.7387 38.028C24.4213 38.1213 24.076 38.168 23.7027 38.168ZM24.0107 37.132C24.3093 37.132 24.5893 37.0853 24.8507 36.992C25.1213 36.8987 25.3593 36.768 25.5647 36.6C25.77 36.4227 25.9333 36.2127 26.0547 35.97C26.176 35.7273 26.2367 35.4613 26.2367 35.172V34.556C25.4807 34.556 24.8367 34.598 24.3047 34.682C23.7727 34.766 23.362 34.9153 23.0727 35.13C22.7927 35.3447 22.6527 35.648 22.6527 36.04C22.6527 36.292 22.7087 36.4973 22.8207 36.656C22.9327 36.8147 23.0913 36.936 23.2967 37.02C23.502 37.0947 23.74 37.132 24.0107 37.132ZM31.9896 38.168C31.3829 38.168 30.8602 38.0327 30.4216 37.762C29.9922 37.4913 29.6562 37.0713 29.4136 36.502C29.1802 35.9233 29.0636 35.1767 29.0636 34.262C29.0636 33.394 29.1849 32.68 29.4276 32.12C29.6702 31.56 30.0062 31.1447 30.4356 30.874C30.8649 30.6033 31.3642 30.468 31.9336 30.468C32.2602 30.468 32.5636 30.5053 32.8436 30.58C33.1236 30.6547 33.3709 30.7713 33.5856 30.93C33.8096 31.0887 34.0056 31.2987 34.1736 31.56H34.2576V27.878H35.4896V38H34.4956L34.3836 36.95H34.2856C34.0336 37.3607 33.7069 37.6687 33.3056 37.874C32.9042 38.07 32.4656 38.168 31.9896 38.168ZM32.2836 37.09C32.7502 37.09 33.1282 36.9873 33.4176 36.782C33.7069 36.5767 33.9169 36.278 34.0476 35.886C34.1876 35.494 34.2576 35.0087 34.2576 34.43V34.206C34.2576 33.702 34.2062 33.2773 34.1036 32.932C34.0009 32.5867 33.8609 32.3113 33.6836 32.106C33.5062 31.9007 33.3009 31.756 33.0676 31.672C32.8342 31.588 32.5869 31.546 32.3256 31.546C31.8682 31.546 31.4949 31.6393 31.2056 31.826C30.9162 32.0033 30.7016 32.288 30.5616 32.68C30.4216 33.0627 30.3516 33.562 30.3516 34.178V34.472C30.3516 35.1067 30.4262 35.62 30.5756 36.012C30.7249 36.3947 30.9396 36.67 31.2196 36.838C31.5089 37.006 31.8636 37.09 32.2836 37.09ZM40.3669 38.168C39.6389 38.168 39.0229 38.0327 38.5189 37.762C38.0243 37.482 37.6463 37.0573 37.3849 36.488C37.1329 35.9187 37.0069 35.1953 37.0069 34.318C37.0069 33.4313 37.1329 32.708 37.3849 32.148C37.6463 31.5787 38.0289 31.1587 38.5329 30.888C39.0369 30.608 39.6669 30.468 40.4229 30.468C41.1136 30.468 41.6923 30.6033 42.1589 30.874C42.6256 31.1353 42.9756 31.532 43.2089 32.064C43.4516 32.5867 43.5729 33.2447 43.5729 34.038V34.626H38.2809C38.2996 35.214 38.3836 35.6993 38.5329 36.082C38.6916 36.4553 38.9249 36.7307 39.2329 36.908C39.5409 37.076 39.9283 37.16 40.3949 37.16C40.7123 37.16 40.9876 37.1227 41.2209 37.048C41.4636 36.964 41.6643 36.8473 41.8229 36.698C41.9909 36.5487 42.1169 36.3713 42.2009 36.166C42.2849 35.9607 42.3316 35.7367 42.3409 35.494H43.5449C43.5356 35.886 43.4609 36.25 43.3209 36.586C43.1809 36.9127 42.9756 37.1927 42.7049 37.426C42.4343 37.6593 42.1029 37.8413 41.7109 37.972C41.3189 38.1027 40.8709 38.168 40.3669 38.168ZM38.3089 33.702H42.2989C42.2989 33.2913 42.2523 32.946 42.1589 32.666C42.0656 32.386 41.9303 32.1573 41.7529 31.98C41.5849 31.8027 41.3843 31.6767 41.1509 31.602C40.9269 31.518 40.6703 31.476 40.3809 31.476C39.9516 31.476 39.5876 31.5553 39.2889 31.714C38.9903 31.8727 38.7616 32.1153 38.6029 32.442C38.4443 32.7687 38.3463 33.1887 38.3089 33.702ZM45.0969 38V30.636H46.0909L46.2029 31.742H46.3009C46.4875 31.4433 46.6975 31.2007 46.9309 31.014C47.1642 30.8273 47.4209 30.692 47.7009 30.608C47.9809 30.5147 48.2842 30.468 48.6109 30.468C49.0869 30.468 49.4975 30.566 49.8429 30.762C50.1882 30.9487 50.4449 31.2753 50.6129 31.742H50.6969C50.8742 31.4433 51.0795 31.2053 51.3129 31.028C51.5462 30.8413 51.8075 30.7013 52.0969 30.608C52.3862 30.5147 52.6942 30.468 53.0209 30.468C53.4689 30.468 53.8609 30.5473 54.1969 30.706C54.5329 30.8553 54.7942 31.1073 54.9809 31.462C55.1769 31.8073 55.2749 32.274 55.2749 32.862V38H54.0429V33.058C54.0429 32.7593 54.0055 32.512 53.9309 32.316C53.8655 32.12 53.7675 31.9707 53.6369 31.868C53.5062 31.756 53.3522 31.6767 53.1749 31.63C53.0069 31.5833 52.8249 31.56 52.6289 31.56C52.3022 31.56 51.9989 31.644 51.7189 31.812C51.4482 31.98 51.2289 32.2227 51.0609 32.54C50.8929 32.8573 50.8089 33.2353 50.8089 33.674V38H49.5769V33.058C49.5769 32.7593 49.5395 32.512 49.4649 32.316C49.3902 32.12 49.2922 31.9707 49.1709 31.868C49.0495 31.756 48.9002 31.6767 48.7229 31.63C48.5549 31.5833 48.3775 31.56 48.1909 31.56C47.8549 31.56 47.5422 31.644 47.2529 31.812C46.9729 31.98 46.7489 32.2227 46.5809 32.54C46.4129 32.8573 46.3289 33.2353 46.3289 33.674V38H45.0969ZM57.7718 40.548C57.5478 40.548 57.3518 40.5293 57.1838 40.492C57.0251 40.464 56.9178 40.4453 56.8618 40.436V39.54H57.4778C57.7018 39.54 57.9211 39.4933 58.1358 39.4C58.3504 39.3067 58.5511 39.148 58.7378 38.924C58.9244 38.7 59.0831 38.392 59.2138 38L56.3578 30.636H57.6458L59.1158 34.43C59.1811 34.6073 59.2558 34.8267 59.3398 35.088C59.4331 35.34 59.5218 35.6013 59.6058 35.872C59.6991 36.1427 59.7738 36.3807 59.8298 36.586H59.9138C59.9511 36.4367 59.9978 36.2687 60.0538 36.082C60.1098 35.8953 60.1658 35.704 60.2218 35.508C60.2871 35.3027 60.3478 35.1113 60.4038 34.934C60.4691 34.7473 60.5204 34.584 60.5578 34.444L61.8038 30.636H63.0498L60.5578 37.79C60.4178 38.1913 60.2638 38.56 60.0958 38.896C59.9278 39.2413 59.7411 39.5353 59.5358 39.778C59.3304 40.0207 59.0831 40.2073 58.7938 40.338C58.5044 40.478 58.1638 40.548 57.7718 40.548Z" fill="#323232"/>
</svg>
