<svg width="178" height="51" viewBox="0 0 178 51" fill="none" xmlns="http://www.w3.org/2000/svg">
<rect width="178" height="50.04" rx="8" fill="#1354DC"/>
<path d="M39.1148 23.6371C39.0761 19.4472 42.6335 17.4088 42.7961 17.3139C40.7815 14.45 37.6588 14.0587 36.5615 14.0275C33.9388 13.7584 31.3948 15.5576 30.0588 15.5576C28.6961 15.5576 26.6388 14.0535 24.4215 14.0977C21.5681 14.1406 18.8988 15.7513 17.4348 18.2525C14.4135 23.3524 16.6668 30.8469 19.5615 34.9692C21.0095 36.9881 22.7015 39.2423 24.9161 39.163C27.0828 39.0759 27.8921 37.8162 30.5068 37.8162C33.0975 37.8162 33.8575 39.163 36.1161 39.1123C38.4415 39.0759 39.9055 37.0843 41.3028 35.0472C42.9761 32.7332 43.6481 30.4543 43.6748 30.3373C43.6201 30.3191 39.1588 28.659 39.1148 23.6371Z" fill="white"/>
<path d="M34.8481 11.3157C36.0135 9.8948 36.8108 7.9617 36.5895 6C34.9028 6.0728 32.7935 7.1375 31.5788 8.5272C30.5041 9.7518 29.5441 11.759 29.7921 13.6466C31.6868 13.7844 33.6321 12.7145 34.8481 11.3157Z" fill="white"/>
<path d="M64.345 10.9295C64.345 12.4596 63.8744 13.6114 62.9344 14.3849C62.0637 15.0986 60.8264 15.4561 59.2237 15.4561C58.429 15.4561 57.749 15.4223 57.1797 15.3547V6.99443C57.9224 6.87743 58.7224 6.81763 59.5864 6.81763C61.113 6.81763 62.2637 7.14133 63.0397 7.78873C63.909 8.52063 64.345 9.56713 64.345 10.9295ZM62.8717 10.9672C62.8717 9.97533 62.6024 9.21483 62.0637 8.68443C61.525 8.15533 60.7384 7.89013 59.7024 7.89013C59.2624 7.89013 58.8877 7.91873 58.577 7.97853V14.3342C58.749 14.3602 59.0637 14.3719 59.521 14.3719C60.5904 14.3719 61.4157 14.082 61.997 13.5022C62.5784 12.9224 62.8717 12.0774 62.8717 10.9672Z" fill="white"/>
<path d="M72.158 12.266C72.158 13.2085 71.882 13.9807 71.33 14.5865C70.7513 15.2092 69.9846 15.5199 69.0273 15.5199C68.1046 15.5199 67.37 15.2222 66.822 14.6242C66.2753 14.0275 66.002 13.2748 66.002 12.3674C66.002 11.4184 66.2833 10.6397 66.8486 10.0352C67.414 9.43071 68.174 9.12781 69.1313 9.12781C70.054 9.12781 70.7953 9.42551 71.3566 10.0222C71.89 10.602 72.158 11.3508 72.158 12.266ZM70.7086 12.3102C70.7086 11.7447 70.5833 11.2598 70.334 10.8555C70.0406 10.3667 69.6233 10.1223 69.0806 10.1223C68.5193 10.1223 68.0926 10.3667 67.7993 10.8555C67.5486 11.2598 67.4246 11.7525 67.4246 12.3349C67.4246 12.9004 67.55 13.3853 67.7993 13.7896C68.102 14.2784 68.5233 14.5228 69.0673 14.5228C69.6006 14.5228 70.0193 14.2745 70.3206 13.7766C70.5793 13.3645 70.7086 12.8757 70.7086 12.3102Z" fill="white"/>
<path d="M82.632 9.25256L80.6654 15.3808H79.3854L78.5707 12.7197C78.3641 12.0554 78.1961 11.395 78.0654 10.7398H78.0401C77.9187 11.4132 77.7507 12.0723 77.5347 12.7197L76.6694 15.3808H75.3747L73.5254 9.25256H74.9614L75.6721 12.1659C75.8441 12.8549 75.9854 13.5114 76.0987 14.1328H76.1241C76.2281 13.6206 76.4001 12.968 76.6427 12.1789L77.5347 9.25386H78.6734L79.5281 12.1165C79.7347 12.8146 79.9027 13.4867 80.032 14.1341H80.0707C80.1654 13.5036 80.3081 12.8315 80.4974 12.1165L81.2601 9.25386H82.632V9.25256Z" fill="white"/>
<path d="M89.8765 15.3808H88.4792V11.8708C88.4792 10.7892 88.0578 10.2484 87.2125 10.2484C86.7978 10.2484 86.4632 10.3966 86.2032 10.6943C85.9458 10.992 85.8152 11.343 85.8152 11.7447V15.3795H84.4178V11.0037C84.4178 10.4655 84.4005 9.8818 84.3672 9.25H85.5952L85.6605 10.2081H85.6992C85.8619 9.9104 86.1045 9.6647 86.4232 9.4684C86.8018 9.2396 87.2258 9.1239 87.6898 9.1239C88.2765 9.1239 88.7645 9.3085 89.1525 9.679C89.6352 10.1327 89.8765 10.81 89.8765 11.7096V15.3808Z" fill="white"/>
<path d="M93.73 15.3808H92.334V6.44067H93.73V15.3808Z" fill="white"/>
<path d="M101.955 12.266C101.955 13.2085 101.679 13.9807 101.127 14.5865C100.548 15.2092 99.7802 15.5199 98.8242 15.5199C97.9002 15.5199 97.1655 15.2222 96.6188 14.6242C96.0722 14.0275 95.7988 13.2748 95.7988 12.3674C95.7988 11.4184 96.0802 10.6397 96.6455 10.0352C97.2108 9.43071 97.9708 9.12781 98.9268 9.12781C99.8508 9.12781 100.591 9.42551 101.153 10.0222C101.687 10.602 101.955 11.3508 101.955 12.266ZM100.504 12.3102C100.504 11.7447 100.379 11.2598 100.129 10.8555C99.8375 10.3667 99.4188 10.1223 98.8775 10.1223C98.3148 10.1223 97.8882 10.3667 97.5962 10.8555C97.3455 11.2598 97.2215 11.7525 97.2215 12.3349C97.2215 12.9004 97.3468 13.3853 97.5962 13.7896C97.8988 14.2784 98.3202 14.5228 98.8642 14.5228C99.3975 14.5228 99.8148 14.2745 100.116 13.7766C100.376 13.3645 100.504 12.8757 100.504 12.3102Z" fill="white"/>
<path d="M108.719 15.3808H107.464L107.36 14.6749H107.321C106.892 15.2378 106.28 15.5199 105.485 15.5199C104.892 15.5199 104.412 15.334 104.051 14.9648C103.723 14.6294 103.559 14.2121 103.559 13.7168C103.559 12.968 103.879 12.3973 104.523 12.0021C105.165 11.6069 106.069 11.4132 107.233 11.4223V11.3079C107.233 10.5006 106.799 10.0976 105.928 10.0976C105.308 10.0976 104.761 10.2497 104.289 10.5513L104.005 9.65691C104.589 9.30461 105.311 9.12781 106.161 9.12781C107.804 9.12781 108.628 9.97281 108.628 11.6628V13.9196C108.628 14.5319 108.659 15.0194 108.719 15.3808ZM107.268 13.2748V12.3297C105.727 12.3037 104.956 12.7158 104.956 13.5647C104.956 13.8845 105.044 14.1237 105.224 14.2836C105.404 14.4435 105.633 14.5228 105.907 14.5228C106.213 14.5228 106.5 14.4279 106.761 14.2394C107.024 14.0496 107.185 13.8091 107.245 13.514C107.26 13.4477 107.268 13.3671 107.268 13.2748Z" fill="white"/>
<path d="M116.658 15.3808H115.418L115.353 14.3967H115.314C114.918 15.1455 114.244 15.5199 113.296 15.5199C112.538 15.5199 111.908 15.23 111.408 14.6502C110.908 14.0704 110.658 13.3177 110.658 12.3934C110.658 11.4015 110.929 10.5981 111.473 9.98447C112 9.41247 112.645 9.12647 113.413 9.12647C114.257 9.12647 114.848 9.40337 115.184 9.95847H115.21V6.44067H116.609V13.7298C116.609 14.3265 116.625 14.8764 116.658 15.3808ZM115.21 12.7964V11.7746C115.21 11.5978 115.197 11.4548 115.172 11.3456C115.093 11.018 114.924 10.7424 114.666 10.5201C114.406 10.2978 114.093 10.186 113.732 10.186C113.21 10.186 112.802 10.3875 112.502 10.7918C112.205 11.1961 112.054 11.7122 112.054 12.3427C112.054 12.9485 112.197 13.4399 112.484 13.8182C112.786 14.2212 113.194 14.4227 113.705 14.4227C114.164 14.4227 114.53 14.255 114.809 13.9183C115.078 13.6076 115.21 13.2332 115.21 12.7964Z" fill="white"/>
<path d="M128.609 12.266C128.609 13.2085 128.333 13.9807 127.781 14.5865C127.202 15.2092 126.437 15.5199 125.478 15.5199C124.557 15.5199 123.822 15.2222 123.273 14.6242C122.726 14.0275 122.453 13.2748 122.453 12.3674C122.453 11.4184 122.734 10.6397 123.3 10.0352C123.865 9.43071 124.625 9.12781 125.584 9.12781C126.505 9.12781 127.248 9.42551 127.808 10.0222C128.341 10.602 128.609 11.3508 128.609 12.266ZM127.161 12.3102C127.161 11.7447 127.036 11.2598 126.786 10.8555C126.492 10.3667 126.076 10.1223 125.532 10.1223C124.972 10.1223 124.545 10.3667 124.25 10.8555C124 11.2598 123.876 11.7525 123.876 12.3349C123.876 12.9004 124.001 13.3853 124.25 13.7896C124.553 14.2784 124.974 14.5228 125.518 14.5228C126.052 14.5228 126.472 14.2745 126.773 13.7766C127.03 13.3645 127.161 12.8757 127.161 12.3102Z" fill="white"/>
<path d="M136.123 15.3808H134.727V11.8708C134.727 10.7892 134.306 10.2484 133.459 10.2484C133.045 10.2484 132.71 10.3966 132.451 10.6943C132.193 10.992 132.063 11.343 132.063 11.7447V15.3795H130.665V11.0037C130.665 10.4655 130.649 9.8818 130.615 9.25H131.842L131.907 10.2081H131.946C132.11 9.9104 132.353 9.6647 132.67 9.4684C133.05 9.2396 133.473 9.1239 133.938 9.1239C134.523 9.1239 135.011 9.3085 135.399 9.679C135.883 10.1327 136.123 10.81 136.123 11.7096V15.3808Z" fill="white"/>
<path d="M145.527 10.2731H143.989V13.2501C143.989 14.0067 144.262 14.385 144.803 14.385C145.054 14.385 145.262 14.3642 145.426 14.3213L145.462 15.3548C145.186 15.4562 144.823 15.5069 144.377 15.5069C143.825 15.5069 143.395 15.3431 143.085 15.0155C142.773 14.6879 142.618 14.1367 142.618 13.3632V10.2731H141.699V9.25264H142.618V8.12944L143.987 7.72644V9.25134H145.526V10.2731H145.527Z" fill="white"/>
<path d="M152.924 15.3808H151.525V11.8968C151.525 10.7983 151.104 10.2484 150.26 10.2484C149.612 10.2484 149.169 10.5669 148.926 11.2039C148.885 11.3378 148.861 11.5016 148.861 11.694V15.3795H147.465V6.44067H148.861V10.134H148.888C149.328 9.46187 149.958 9.12647 150.776 9.12647C151.354 9.12647 151.833 9.31107 152.213 9.68157C152.686 10.1431 152.924 10.8295 152.924 11.7369V15.3808Z" fill="white"/>
<path d="M160.555 12.0268C160.555 12.2712 160.536 12.4766 160.503 12.6443H156.312C156.331 13.2501 156.531 13.7116 156.919 14.0314C157.273 14.3174 157.731 14.4604 158.291 14.4604C158.911 14.4604 159.476 14.3642 159.985 14.1705L160.204 15.1169C159.608 15.3691 158.907 15.4952 158.095 15.4952C157.121 15.4952 156.355 15.2157 155.8 14.6567C155.243 14.0977 154.967 13.3476 154.967 12.4064C154.967 11.4821 155.224 10.7125 155.743 10.0989C156.284 9.44369 157.016 9.11609 157.94 9.11609C158.844 9.11609 159.531 9.44369 159.995 10.0989C160.369 10.6189 160.555 11.2624 160.555 12.0268ZM159.221 11.6745C159.232 11.2702 159.14 10.9218 158.951 10.628C158.708 10.2497 158.339 10.0599 157.839 10.0599C157.383 10.0599 157.011 10.2445 156.727 10.615C156.495 10.9101 156.357 11.2624 156.312 11.6745H159.221Z" fill="white"/>
<path d="M70.4702 38.873H67.4422L65.7836 33.7913H60.0182L58.4382 38.873H55.4902L61.2022 21.5726H64.7302L70.4702 38.873ZM65.2836 31.6593L63.7836 27.1418C63.6249 26.6803 63.3276 25.5935 62.8889 23.8827H62.8356C62.6609 24.6185 62.3796 25.7053 61.9929 27.1418L60.5196 31.6593H65.2836Z" fill="white"/>
<path d="M85.1592 32.4823C85.1592 34.6039 84.5712 36.2809 83.3952 37.512C82.3419 38.6079 81.0339 39.1552 79.4726 39.1552C77.7872 39.1552 76.5766 38.565 75.8392 37.3846H75.7859V43.9561H72.9432V30.505C72.9432 29.1712 72.9072 27.8023 72.8379 26.3983H75.3379L75.4966 28.3756H75.5499C76.4979 26.8858 77.9366 26.1422 79.8672 26.1422C81.3766 26.1422 82.6366 26.7233 83.6446 27.8868C84.6552 29.0516 85.1592 30.583 85.1592 32.4823ZM82.2632 32.5837C82.2632 31.3695 81.9832 30.3685 81.4206 29.5807C80.8059 28.7591 79.9806 28.3483 78.9459 28.3483C78.2446 28.3483 77.6072 28.5771 77.0379 29.0282C76.4672 29.4832 76.0939 30.0773 75.9192 30.8131C75.8312 31.1563 75.7872 31.4371 75.7872 31.6581V33.7381C75.7872 34.6455 76.0726 35.4112 76.6432 36.0365C77.2139 36.6618 77.9552 36.9738 78.8672 36.9738C79.9379 36.9738 80.7712 36.5708 81.3672 35.7674C81.9646 34.9627 82.2632 33.9019 82.2632 32.5837Z" fill="white"/>
<path d="M99.8747 32.4823C99.8747 34.6039 99.2867 36.2809 98.1094 37.512C97.0574 38.6079 95.7494 39.1552 94.188 39.1552C92.5027 39.1552 91.292 38.565 90.556 37.3846H90.5027V43.9561H87.66V30.505C87.66 29.1712 87.624 27.8023 87.5547 26.3983H90.0547L90.2134 28.3756H90.2667C91.2134 26.8858 92.652 26.1422 94.584 26.1422C96.092 26.1422 97.352 26.7233 98.3627 27.8868C99.3694 29.0516 99.8747 30.583 99.8747 32.4823ZM96.9787 32.5837C96.9787 31.3695 96.6974 30.3685 96.1347 29.5807C95.52 28.7591 94.6974 28.3483 93.6614 28.3483C92.9587 28.3483 92.3227 28.5771 91.752 29.0282C91.1814 29.4832 90.8094 30.0773 90.6347 30.8131C90.548 31.1563 90.5027 31.4371 90.5027 31.6581V33.7381C90.5027 34.6455 90.788 35.4112 91.356 36.0365C91.9267 36.6605 92.668 36.9738 93.5827 36.9738C94.6534 36.9738 95.4867 36.5708 96.0827 35.7674C96.68 34.9627 96.9787 33.9019 96.9787 32.5837Z" fill="white"/>
<path d="M116.328 34.0215C116.328 35.4931 115.804 36.6904 114.752 37.6147C113.596 38.6248 111.987 39.1292 109.919 39.1292C108.01 39.1292 106.479 38.7704 105.32 38.0515L105.979 35.7414C107.227 36.4772 108.596 36.8464 110.088 36.8464C111.159 36.8464 111.992 36.6098 112.591 36.1392C113.187 35.6686 113.484 35.0368 113.484 34.249C113.484 33.547 113.239 32.9555 112.747 32.4758C112.258 31.9961 111.44 31.5502 110.299 31.1381C107.192 30.0084 105.64 28.3535 105.64 26.1773C105.64 24.7551 106.184 23.589 107.274 22.6816C108.359 21.7729 109.807 21.3192 111.618 21.3192C113.232 21.3192 114.574 21.5935 115.644 22.1408L114.934 24.4002C113.934 23.8698 112.803 23.6046 111.538 23.6046C110.538 23.6046 109.756 23.8451 109.196 24.3235C108.723 24.7512 108.486 25.2725 108.486 25.89C108.486 26.5738 108.756 27.1393 109.3 27.5839C109.774 27.9947 110.634 28.4393 111.882 28.919C113.408 29.5183 114.53 30.219 115.251 31.0224C115.97 31.8232 116.328 32.8255 116.328 34.0215Z" fill="white"/>
<path d="M125.728 28.4783H122.594V34.535C122.594 36.0755 123.146 36.8451 124.253 36.8451C124.761 36.8451 125.182 36.8022 125.516 36.7164L125.594 38.8211C125.034 39.0252 124.297 39.1279 123.384 39.1279C122.261 39.1279 121.384 38.7938 120.75 38.1269C120.12 37.4587 119.802 36.3381 119.802 34.7638V28.4757H117.936V26.3957H119.802V24.1116L122.594 23.29V26.3957H125.728V28.4783Z" fill="white"/>
<path d="M139.864 32.5331C139.864 34.4506 139.301 36.0249 138.179 37.256C137.001 38.5235 135.439 39.1553 133.491 39.1553C131.613 39.1553 130.119 38.5482 129.004 37.334C127.889 36.1198 127.332 34.5871 127.332 32.7398C127.332 30.8067 127.905 29.2233 129.056 27.9922C130.204 26.7598 131.753 26.1436 133.701 26.1436C135.579 26.1436 137.089 26.7507 138.229 27.9662C139.32 29.1453 139.864 30.6676 139.864 32.5331ZM136.915 32.6228C136.915 31.4723 136.663 30.4856 136.152 29.6627C135.556 28.6669 134.704 28.1703 133.6 28.1703C132.457 28.1703 131.589 28.6682 130.993 29.6627C130.483 30.4869 130.231 31.4892 130.231 32.6748C130.231 33.8253 130.483 34.812 130.993 35.6336C131.608 36.6294 132.467 37.126 133.575 37.126C134.66 37.126 135.512 36.619 136.127 35.6076C136.651 34.7691 136.915 33.772 136.915 32.6228Z" fill="white"/>
<path d="M149.105 28.8358C148.824 28.7851 148.524 28.7591 148.209 28.7591C147.209 28.7591 146.436 29.127 145.892 29.8641C145.418 30.5141 145.181 31.3357 145.181 32.3276V38.8731H142.34L142.366 30.3269C142.366 28.8891 142.33 27.58 142.26 26.3996H144.736L144.84 28.7864H144.918C145.218 27.9661 145.692 27.3057 146.34 26.8104C146.973 26.3645 147.657 26.1422 148.394 26.1422C148.657 26.1422 148.894 26.1604 149.105 26.1929V28.8358Z" fill="white"/>
<path d="M161.818 32.0455C161.818 32.5421 161.785 32.9607 161.714 33.3026H153.186C153.219 34.535 153.631 35.4775 154.423 36.1275C155.142 36.7086 156.071 36.9998 157.213 36.9998C158.475 36.9998 159.627 36.8035 160.663 36.4096L161.109 38.3336C159.898 38.8484 158.469 39.1045 156.819 39.1045C154.835 39.1045 153.278 38.5351 152.145 37.3976C151.014 36.2601 150.447 34.7326 150.447 32.8164C150.447 30.9353 150.974 29.3688 152.029 28.1195C153.133 26.7857 154.625 26.1188 156.502 26.1188C158.346 26.1188 159.742 26.7857 160.69 28.1195C161.441 29.179 161.818 30.4894 161.818 32.0455ZM159.107 31.3266C159.126 30.505 158.941 29.7952 158.555 29.1959C158.063 28.425 157.307 28.0402 156.29 28.0402C155.361 28.0402 154.605 28.4159 154.027 29.1699C153.554 29.7692 153.273 30.4881 153.186 31.3253H159.107V31.3266Z" fill="white"/>
</svg>
