<svg width="195" height="130" viewBox="0 0 195 130" fill="none" xmlns="http://www.w3.org/2000/svg">
<rect width="195" height="130" rx="16" fill="#F6F6F6"/>
<path fill-rule="evenodd" clip-rule="evenodd" d="M87.2387 37.688C93.7023 33.9324 101.647 33.998 108.05 37.8599C114.39 41.8005 118.243 48.8332 118.207 56.3985C118.06 63.9141 113.928 70.9788 108.763 76.4401C105.782 79.6065 102.447 82.4063 98.8272 84.7825C98.4543 84.9981 98.0459 85.1424 97.6221 85.2084C97.2142 85.191 96.8169 85.0704 96.4662 84.8576C90.939 81.2873 86.09 76.7299 82.1525 71.4047C78.8577 66.9595 76.9858 61.589 76.791 56.0227C76.7867 48.4429 80.7752 41.4436 87.2387 37.688ZM90.9737 59.1596C92.061 61.84 94.6273 63.5884 97.4745 63.5884C99.3397 63.6018 101.133 62.8547 102.454 61.5135C103.775 60.1723 104.515 58.3486 104.508 56.4486C104.518 53.5484 102.811 50.9281 100.183 49.8112C97.5558 48.6943 94.5264 49.3011 92.5096 51.3483C90.4928 53.3955 89.8865 56.4792 90.9737 59.1596Z" fill="#FF948B"/>
<ellipse opacity="0.4" cx="97.4987" cy="91.125" rx="14.7917" ry="2.95833" fill="#FF948B"/>
</svg>
