<svg width="178" height="51" viewBox="0 0 178 51" fill="none" xmlns="http://www.w3.org/2000/svg">
<rect width="178" height="50.04" rx="8" fill="#F8F9FD"/>
<path d="M11.6183 8.51614C11.2267 8.91589 11 9.53827 11 10.3443V39.0938C11 39.8998 11.2267 40.5221 11.6183 40.9219L11.715 41.0096L28.2383 24.9059V24.5256L11.715 8.4219L11.6183 8.51614Z" fill="#1354DC"/>
<path d="M35.7399 30.2765L30.2383 24.9059V24.5256L35.7466 19.155L35.8699 19.2249L42.3933 22.8437C44.2549 23.8707 44.2549 25.5607 42.3933 26.5942L35.8699 30.2066L35.7399 30.2765Z" fill="#1354DC"/>
<path d="M34.8708 31.2067L29.2391 25.7158L12.6191 41.9219C13.2375 42.5557 14.2458 42.632 15.3925 41.9983L34.8708 31.2067Z" fill="#1354DC"/>
<path d="M34.8708 18.2249L15.3925 7.43333C14.2458 6.80608 13.2375 6.88245 12.6191 7.5162L29.2391 23.7158L34.8708 18.2249Z" fill="#1354DC"/>
<path d="M61.9285 12.0326C61.9285 13.1181 61.5951 13.9875 60.9385 14.6359C60.1835 15.4045 59.2001 15.7913 57.9951 15.7913C56.8435 15.7913 55.8601 15.398 55.0535 14.6229C54.2451 13.8364 53.8418 12.8711 53.8418 11.7158C53.8418 10.5604 54.2451 9.59513 55.0535 8.81513C55.8601 8.03351 56.8435 7.64026 57.9951 7.64026C58.5685 7.64026 59.1151 7.75563 59.6368 7.97013C60.1568 8.18626 60.5801 8.47876 60.8868 8.83951L60.1901 9.52526C59.6551 8.90938 58.9268 8.60551 57.9951 8.60551C57.1551 8.60551 56.4268 8.89151 55.8085 9.46838C55.1968 10.0469 54.8901 10.796 54.8901 11.7158C54.8901 12.6355 55.1968 13.3911 55.8085 13.9696C56.4268 14.54 57.1551 14.8325 57.9951 14.8325C58.8868 14.8325 59.6368 14.54 60.2285 13.9631C60.6185 13.5813 60.8401 13.0548 60.8985 12.382H57.9951V11.4428H61.8685C61.9151 11.6459 61.9285 11.8425 61.9285 12.0326Z" fill="#1354DC" stroke="#1354DC" stroke-width="0.16" stroke-miterlimit="10"/>
<path d="M68.0726 8.77609H64.4343V11.2461H67.7143V12.1853H64.4343V14.6553H68.0726V15.6125H63.4043V7.81897H68.0726V8.77609Z" fill="#1354DC" stroke="#1354DC" stroke-width="0.16" stroke-miterlimit="10"/>
<path d="M72.4101 15.6125H71.3801V8.77609H69.1484V7.81897H74.6434V8.77609H72.4101V15.6125Z" fill="#1354DC" stroke="#1354DC" stroke-width="0.16" stroke-miterlimit="10"/>
<path d="M78.6211 15.6125V7.81897H79.6494V15.6125H78.6211Z" fill="#1354DC" stroke="#1354DC" stroke-width="0.16" stroke-miterlimit="10"/>
<path d="M84.207 15.6125H83.1853V8.77609H80.9453V7.81897H86.447V8.77609H84.207V15.6125Z" fill="#1354DC" stroke="#1354DC" stroke-width="0.16" stroke-miterlimit="10"/>
<path d="M96.8497 14.6099C96.0614 15.398 95.0847 15.7913 93.9197 15.7913C92.748 15.7913 91.7714 15.398 90.983 14.6099C90.1964 13.8234 89.8047 12.8581 89.8047 11.7158C89.8047 10.5734 90.1964 9.60813 90.983 8.82163C91.7714 8.03351 92.748 7.64026 93.9197 7.64026C95.078 7.64026 96.0547 8.03351 96.843 8.82813C97.6364 9.62113 98.028 10.5799 98.028 11.7158C98.028 12.8581 97.6364 13.8234 96.8497 14.6099ZM91.7447 13.9566C92.338 14.54 93.0597 14.8325 93.9197 14.8325C94.773 14.8325 95.5014 14.54 96.088 13.9566C96.6797 13.3733 96.9797 12.6241 96.9797 11.7158C96.9797 10.8074 96.6797 10.0583 96.088 9.47488C95.5014 8.89151 94.773 8.59901 93.9197 8.59901C93.0597 8.59901 92.338 8.89151 91.7447 9.47488C91.153 10.0583 90.853 10.8074 90.853 11.7158C90.853 12.6241 91.153 13.3733 91.7447 13.9566Z" fill="#1354DC" stroke="#1354DC" stroke-width="0.16" stroke-miterlimit="10"/>
<path d="M99.4727 15.6125V7.81897H100.723L104.609 13.8802H104.654L104.609 12.382V7.81897H105.638V15.6125H104.564L100.494 9.25222H100.449L100.494 10.757V15.6125H99.4727Z" fill="#1354DC" stroke="#1354DC" stroke-width="0.16" stroke-miterlimit="10"/>
<path d="M89.5524 26.9941C86.4208 26.9941 83.8624 29.3179 83.8624 32.524C83.8624 35.7041 86.4208 38.0522 89.5524 38.0522C92.6908 38.0522 95.2491 35.7041 95.2491 32.524C95.2491 29.3179 92.6908 26.9941 89.5524 26.9941ZM89.5524 35.8747C87.8341 35.8747 86.3558 34.4919 86.3558 32.524C86.3558 30.5301 87.8341 29.1716 89.5524 29.1716C91.2708 29.1716 92.7558 30.5301 92.7558 32.524C92.7558 34.4919 91.2708 35.8747 89.5524 35.8747ZM77.1374 26.9941C73.9991 26.9941 71.4474 29.3179 71.4474 32.524C71.4474 35.7041 73.9991 38.0522 77.1374 38.0522C80.2741 38.0522 82.8274 35.7041 82.8274 32.524C82.8274 29.3179 80.2741 26.9941 77.1374 26.9941ZM77.1374 35.8747C75.4174 35.8747 73.9341 34.4919 73.9341 32.524C73.9341 30.5301 75.4174 29.1716 77.1374 29.1716C78.8558 29.1716 80.3341 30.5301 80.3341 32.524C80.3341 34.4919 78.8558 35.8747 77.1374 35.8747ZM62.3641 28.689V31.0387H68.1191C67.9508 32.3517 67.5008 33.317 66.8108 33.9897C65.9708 34.8022 64.6624 35.7041 62.3641 35.7041C58.8224 35.7041 56.0491 32.9172 56.0491 29.4641C56.0491 26.011 58.8224 23.2241 62.3641 23.2241C64.2791 23.2241 65.6724 23.9537 66.7008 24.8995L68.3991 23.2436C66.9608 21.9046 65.0474 20.876 62.3641 20.876C57.5074 20.876 53.4258 24.7289 53.4258 29.4641C53.4258 34.1994 57.5074 38.0522 62.3641 38.0522C64.9891 38.0522 66.9608 37.2137 68.5108 35.6407C70.0991 34.0921 70.5941 31.9146 70.5941 30.1564C70.5941 29.6104 70.5474 29.1082 70.4641 28.689H62.3641ZM122.774 30.5106C122.306 29.274 120.861 26.9941 117.917 26.9941C115.001 26.9941 112.572 29.235 112.572 32.524C112.572 35.6212 114.976 38.0522 118.197 38.0522C120.802 38.0522 122.306 36.5036 122.924 35.6017L120.991 34.3456C120.346 35.2654 119.467 35.8747 118.197 35.8747C116.936 35.8747 116.031 35.3109 115.451 34.1994L123.036 31.1395L122.774 30.5106ZM115.041 32.3517C114.976 30.2197 116.739 29.1277 118.002 29.1277C118.992 29.1277 119.832 29.6104 120.112 30.301L115.041 32.3517ZM108.876 37.7159H111.369V21.4659H108.876V37.7159ZM104.792 28.2259H104.709C104.149 27.5791 103.081 26.9941 101.727 26.9941C98.8874 26.9941 96.2908 29.4251 96.2908 32.5419C96.2908 35.6407 98.8874 38.0522 101.727 38.0522C103.081 38.0522 104.149 37.4624 104.709 36.7961H104.792V37.5891C104.792 39.7032 103.634 40.8391 101.766 40.8391C100.242 40.8391 99.2974 39.7666 98.9074 38.8647L96.7391 39.7471C97.3641 41.2129 99.0191 43.0166 101.766 43.0166C104.689 43.0166 107.156 41.3396 107.156 37.2592V27.3305H104.792V28.2259ZM101.941 35.8747C100.222 35.8747 98.7841 34.4724 98.7841 32.5419C98.7841 30.5935 100.222 29.1716 101.941 29.1716C103.634 29.1716 104.969 30.5935 104.969 32.5419C104.969 34.4724 103.634 35.8747 101.941 35.8747ZM134.447 21.4659H128.484V37.7159H130.971V31.5587H134.447C137.209 31.5587 139.917 29.6104 139.917 26.5115C139.917 23.4142 137.202 21.4659 134.447 21.4659ZM134.512 29.2984H130.971V23.7262H134.512C136.369 23.7262 137.429 25.2294 137.429 26.5115C137.429 27.7692 136.369 29.2984 134.512 29.2984ZM149.884 26.9632C148.087 26.9632 146.219 27.7367 145.451 29.4511L147.657 30.353C148.132 29.4511 149.006 29.1586 149.929 29.1586C151.219 29.1586 152.527 29.9142 152.547 31.2484V31.419C152.097 31.1655 151.134 30.7901 149.949 30.7901C147.572 30.7901 145.151 32.0657 145.151 34.4464C145.151 36.6239 147.097 38.0262 149.286 38.0262C150.959 38.0262 151.882 37.2901 152.462 36.4337H152.547V37.6899H154.949V31.4564C154.949 28.5752 152.742 26.9632 149.884 26.9632ZM149.584 35.8682C148.771 35.8682 147.637 35.475 147.637 34.4919C147.637 33.2341 149.051 32.7515 150.274 32.7515C151.369 32.7515 151.882 32.9871 152.547 33.2975C152.352 34.8022 151.024 35.8682 149.584 35.8682ZM163.699 27.3191L160.841 34.3635H160.756L157.801 27.3191H155.119L159.559 37.1634L157.026 42.6412H159.624L166.466 27.3191H163.699ZM141.284 37.7159H143.777V21.4659H141.284V37.7159Z" fill="#1354DC"/>
</svg>
