<svg width="155" height="44" viewBox="0 0 155 44" fill="none" xmlns="http://www.w3.org/2000/svg">
<rect y="0.340515" width="154.234" height="43.3589" rx="6.93188" fill="#1354DC"/>
<path d="M10.067 7.71968C9.72765 8.06606 9.53125 8.60534 9.53125 9.30373V34.2147C9.53125 34.9131 9.72765 35.4524 10.067 35.7988L10.1508 35.8748L24.468 21.9212V21.5917L10.1508 7.63802L10.067 7.71968Z" fill="white"/>
<path d="M30.9663 26.5746L26.1992 21.9211V21.5916L30.9721 16.938L31.079 16.9986L36.7313 20.1343C38.3444 21.0242 38.3444 22.4885 36.7313 23.384L31.079 26.5141L30.9663 26.5746Z" fill="white"/>
<path d="M30.2163 27.3807L25.3365 22.6229L10.9355 36.6653C11.4713 37.2144 12.345 37.2806 13.3386 36.7314L30.2163 27.3807Z" fill="white"/>
<path d="M30.2163 16.1322L13.3386 6.78141C12.345 6.23791 11.4713 6.30409 10.9355 6.85322L25.3365 20.89L30.2163 16.1322Z" fill="white"/>
<path d="M53.6593 10.7666C53.6593 11.7071 53.3705 12.4604 52.8015 13.0222C52.1473 13.6882 51.2953 14.0233 50.2511 14.0233C49.2532 14.0233 48.4012 13.6826 47.7022 13.011C47.0018 12.3295 46.6523 11.4931 46.6523 10.492C46.6523 9.49088 47.0018 8.6545 47.7022 7.97864C48.4012 7.30138 49.2532 6.96063 50.2511 6.96063C50.7479 6.96063 51.2216 7.0606 51.6736 7.24646C52.1242 7.43373 52.491 7.68718 52.7567 7.99976L52.1531 8.59396C51.6895 8.06031 51.0584 7.79701 50.2511 7.79701C49.5233 7.79701 48.8922 8.04482 48.3564 8.54467C47.8264 9.04594 47.5607 9.69504 47.5607 10.492C47.5607 11.2889 47.8264 11.9437 48.3564 12.4449C48.8922 12.9392 49.5233 13.1926 50.2511 13.1926C51.0238 13.1926 51.6736 12.9392 52.1863 12.4393C52.5242 12.1084 52.7163 11.6522 52.7668 11.0693H50.2511V10.2554H53.6073C53.6478 10.4314 53.6593 10.6018 53.6593 10.7666Z" fill="white" stroke="white" stroke-width="0.138638" stroke-miterlimit="10"/>
<path d="M58.9845 7.94487H55.8319V10.0851H58.674V10.8989H55.8319V13.0392H58.9845V13.8685H54.9395V7.11554H58.9845V7.94487Z" fill="white" stroke="white" stroke-width="0.138638" stroke-miterlimit="10"/>
<path d="M62.7422 13.8685H61.8497V7.94487H59.916V7.11554H64.6773V7.94487H62.7422V13.8685Z" fill="white" stroke="white" stroke-width="0.138638" stroke-miterlimit="10"/>
<path d="M68.123 13.8685V7.11554H69.0141V13.8685H68.123Z" fill="white" stroke="white" stroke-width="0.138638" stroke-miterlimit="10"/>
<path d="M72.9629 13.8685H72.0776V7.94487H70.1367V7.11554H74.9038V7.94487H72.9629V13.8685Z" fill="white" stroke="white" stroke-width="0.138638" stroke-miterlimit="10"/>
<path d="M83.9188 12.9997C83.2358 13.6826 82.3895 14.0233 81.38 14.0233C80.3648 14.0233 79.5185 13.6826 78.8355 12.9997C78.1538 12.3182 77.8145 11.4818 77.8145 10.492C77.8145 9.50214 78.1538 8.66577 78.8355 7.98428C79.5185 7.30138 80.3648 6.96063 81.38 6.96063C82.3837 6.96063 83.23 7.30138 83.9131 7.98991C84.6005 8.67703 84.9399 9.50777 84.9399 10.492C84.9399 11.4818 84.6005 12.3182 83.9188 12.9997ZM79.4954 12.4337C80.0096 12.9392 80.6349 13.1926 81.38 13.1926C82.1194 13.1926 82.7505 12.9392 83.2589 12.4337C83.7715 11.9282 84.0315 11.2791 84.0315 10.492C84.0315 9.7049 83.7715 9.05579 83.2589 8.55031C82.7505 8.04482 82.1194 7.79137 81.38 7.79137C80.6349 7.79137 80.0096 8.04482 79.4954 8.55031C78.9828 9.05579 78.7228 9.7049 78.7228 10.492C78.7228 11.2791 78.9828 11.9282 79.4954 12.4337Z" fill="white" stroke="white" stroke-width="0.138638" stroke-miterlimit="10"/>
<path d="M86.1914 13.8685V7.11554H87.2745L90.6423 12.3675H90.6812L90.6423 11.0693V7.11554H91.5333V13.8685H90.6033L87.0767 8.35743H87.0377L87.0767 9.66127V13.8685H86.1914Z" fill="white" stroke="white" stroke-width="0.138638" stroke-miterlimit="10"/>
<path d="M77.5981 23.7306C74.8846 23.7306 72.6678 25.7441 72.6678 28.5221C72.6678 31.2777 74.8846 33.3123 77.5981 33.3123C80.3174 33.3123 82.5342 31.2777 82.5342 28.5221C82.5342 25.7441 80.3174 23.7306 77.5981 23.7306ZM77.5981 31.4255C76.1092 31.4255 74.8283 30.2273 74.8283 28.5221C74.8283 26.7945 76.1092 25.6173 77.5981 25.6173C79.087 25.6173 80.3738 26.7945 80.3738 28.5221C80.3738 30.2273 79.087 31.4255 77.5981 31.4255ZM66.8407 23.7306C64.1214 23.7306 61.9104 25.7441 61.9104 28.5221C61.9104 31.2777 64.1214 33.3123 66.8407 33.3123C69.5586 33.3123 71.771 31.2777 71.771 28.5221C71.771 25.7441 69.5586 23.7306 66.8407 23.7306ZM66.8407 31.4255C65.3504 31.4255 64.0651 30.2273 64.0651 28.5221C64.0651 26.7945 65.3504 25.6173 66.8407 25.6173C68.3296 25.6173 69.6106 26.7945 69.6106 28.5221C69.6106 30.2273 68.3296 31.4255 66.8407 31.4255ZM54.0398 25.1992V27.2352H59.0265C58.8806 28.3729 58.4907 29.2093 57.8928 29.7922C57.165 30.4962 56.0313 31.2777 54.0398 31.2777C50.971 31.2777 48.568 28.8629 48.568 25.8708C48.568 22.8787 50.971 20.4639 54.0398 20.4639C55.6992 20.4639 56.9065 21.0961 57.7975 21.9156L59.2691 20.4808C58.0228 19.3206 56.3649 18.4293 54.0398 18.4293C49.8316 18.4293 46.2949 21.7678 46.2949 25.8708C46.2949 29.9738 49.8316 33.3123 54.0398 33.3123C56.3144 33.3123 58.0228 32.5857 59.3658 31.2227C60.7421 29.8809 61.171 27.9941 61.171 26.4706C61.171 25.9975 61.1306 25.5624 61.0584 25.1992H54.0398ZM106.384 26.7776C105.978 25.7061 104.726 23.7306 102.176 23.7306C99.6487 23.7306 97.5446 25.6723 97.5446 28.5221C97.5446 31.2059 99.6271 33.3123 102.419 33.3123C104.676 33.3123 105.978 31.9704 106.514 31.189L104.839 30.1005C104.28 30.8975 103.519 31.4255 102.419 31.4255C101.325 31.4255 100.541 30.9369 100.039 29.9738L106.611 27.3225L106.384 26.7776ZM99.6834 28.3729C99.6271 26.5255 101.155 25.5793 102.25 25.5793C103.107 25.5793 103.835 25.9975 104.078 26.5959L99.6834 28.3729ZM94.3415 33.0208H96.5019V18.9404H94.3415V33.0208ZM90.8034 24.7979H90.7311C90.2459 24.2375 89.3202 23.7306 88.1476 23.7306C85.6868 23.7306 83.4368 25.837 83.4368 28.5376C83.4368 31.2227 85.6868 33.3123 88.1476 33.3123C89.3202 33.3123 90.2459 32.8012 90.7311 32.2239H90.8034V32.911C90.8034 34.7428 89.7997 35.7271 88.1808 35.7271C86.8608 35.7271 86.042 34.7978 85.7041 34.0163L83.8253 34.7809C84.3668 36.0509 85.8008 37.6138 88.1808 37.6138C90.7138 37.6138 92.8511 36.1607 92.8511 32.6252V24.022H90.8034V24.7979ZM88.3324 31.4255C86.8435 31.4255 85.5972 30.2104 85.5972 28.5376C85.5972 26.8494 86.8435 25.6173 88.3324 25.6173C89.7997 25.6173 90.9564 26.8494 90.9564 28.5376C90.9564 30.2104 89.7997 31.4255 88.3324 31.4255ZM116.499 18.9404H111.332V33.0208H113.486V27.6858H116.499C118.892 27.6858 121.239 25.9975 121.239 23.3124C121.239 20.6287 118.886 18.9404 116.499 18.9404ZM116.555 25.7272H113.486V20.899H116.555C118.164 20.899 119.083 22.2014 119.083 23.3124C119.083 24.4022 118.164 25.7272 116.555 25.7272ZM129.875 23.7038C128.318 23.7038 126.699 24.3741 126.033 25.8595L127.945 26.641C128.357 25.8595 129.114 25.6061 129.914 25.6061C131.031 25.6061 132.165 26.2608 132.182 27.4168V27.5647C131.792 27.345 130.958 27.0198 129.931 27.0198C127.872 27.0198 125.773 28.1251 125.773 30.1878C125.773 32.0746 127.46 33.2897 129.356 33.2897C130.806 33.2897 131.606 32.6519 132.109 31.9099H132.182V32.9983H134.263V27.5971C134.263 25.1006 132.351 23.7038 129.875 23.7038ZM129.615 31.4199C128.91 31.4199 127.928 31.0791 127.928 30.2273C127.928 29.1374 129.153 28.7193 130.213 28.7193C131.161 28.7193 131.606 28.9234 132.182 29.1924C132.013 30.4962 130.862 31.4199 129.615 31.4199ZM141.845 24.0122L139.368 30.116H139.295L136.734 24.0122H134.411L138.258 32.5421L136.063 37.2886H138.314L144.242 24.0122H141.845ZM122.423 33.0208H124.583V18.9404H122.423V33.0208Z" fill="white"/>
</svg>
