<svg width="195" height="130" viewBox="0 0 195 130" fill="none" xmlns="http://www.w3.org/2000/svg">
<rect width="195" height="130" rx="16" fill="#F6F6F6"/>
<path d="M97.5354 72.8725C92.7888 72.8725 88.9492 69.1746 88.9492 64.53C88.9492 59.8854 92.7888 56.1579 97.5354 56.1579C102.282 56.1579 106.031 59.8854 106.031 64.53C106.031 69.1746 102.282 72.8725 97.5354 72.8725Z" fill="#1354DC"/>
<path opacity="0.4" d="M124.806 71.5116C124.232 70.6241 123.416 69.7366 122.358 69.1745C121.511 68.7603 120.967 68.0799 120.483 67.2812C118.941 64.737 119.848 61.3941 122.418 59.8853C125.441 58.1991 126.409 54.442 124.655 51.5132L122.63 48.0224C120.906 45.0937 117.127 44.0582 114.134 45.7741C111.474 47.1941 108.057 46.2474 106.516 43.7328C106.032 42.9045 105.76 42.017 105.82 41.1295C105.911 39.9757 105.548 38.8812 105.004 37.9937C103.885 36.1595 101.86 34.917 99.6224 34.917H95.3596C93.1526 34.9762 91.127 36.1595 90.0084 37.9937C89.434 38.8812 89.1014 39.9757 89.1619 41.1295C89.2223 42.017 88.9502 42.9045 88.4665 43.7328C86.9246 46.2474 83.5083 47.1941 80.878 45.7741C77.8548 44.0582 74.1059 45.0937 72.3524 48.0224L70.3268 51.5132C68.6035 54.442 69.5709 58.1991 72.564 59.8853C75.1338 61.3941 76.0408 64.737 74.5291 67.2812C74.0152 68.0799 73.471 68.7603 72.6245 69.1745C71.5965 69.7366 70.6896 70.6241 70.2058 71.5116C69.0872 73.3457 69.1477 75.6532 70.2663 77.5762L72.3524 81.1262C73.471 83.0195 75.5571 84.2028 77.7338 84.2028C78.7617 84.2028 79.9711 83.907 80.9385 83.3153C81.6943 82.8124 82.6013 82.6349 83.599 82.6349C86.5921 82.6349 89.1014 85.0903 89.1619 88.0191C89.1619 91.4212 91.9433 94.0837 95.4503 94.0837H99.562C103.039 94.0837 105.82 91.4212 105.82 88.0191C105.911 85.0903 108.42 82.6349 111.413 82.6349C112.381 82.6349 113.288 82.8124 114.074 83.3153C115.041 83.907 116.22 84.2028 117.278 84.2028C119.425 84.2028 121.511 83.0195 122.63 81.1262L124.746 77.5762C125.834 75.5941 125.925 73.3457 124.806 71.5116Z" fill="#1354DC"/>
</svg>
