<svg width="155" height="44" viewBox="0 0 155 44" fill="none" xmlns="http://www.w3.org/2000/svg">
<rect x="0.765625" y="0.340515" width="154.234" height="43.3589" rx="6.93188" fill="#1354DC"/>
<path d="M34.6595 20.8216C34.626 17.1912 37.7084 15.4249 37.8493 15.3427C36.1036 12.8612 33.3979 12.5221 32.4471 12.4951C30.1746 12.2619 27.9702 13.8209 26.8126 13.8209C25.6319 13.8209 23.8492 12.5176 21.9279 12.5559C19.4556 12.5931 17.1426 13.9887 15.8741 16.156C13.2561 20.575 15.2086 27.0688 17.7168 30.6407C18.9715 32.3901 20.4376 34.3433 22.3566 34.2746C24.2339 34.1991 24.9352 33.1076 27.2008 33.1076C29.4456 33.1076 30.1041 34.2746 32.0612 34.2307C34.076 34.1991 35.3446 32.4734 36.5554 30.7083C38.0053 28.7033 38.5875 26.7287 38.6107 26.6273C38.5633 26.6115 34.6976 25.173 34.6595 20.8216Z" fill="white"/>
<path d="M30.9625 10.1453C31.9722 8.91415 32.6631 7.23915 32.4713 5.53937C31.0098 5.60245 29.1821 6.52499 28.1297 7.72915C27.1985 8.79025 26.3666 10.5295 26.5815 12.165C28.2232 12.2844 29.9088 11.3574 30.9625 10.1453Z" fill="white"/>
<path d="M56.5212 9.81076C56.5212 11.1366 56.1133 12.1346 55.2988 12.8048C54.5444 13.4232 53.4723 13.733 52.0836 13.733C51.395 13.733 50.8058 13.7037 50.3125 13.6451V6.40106C50.956 6.29968 51.6492 6.24786 52.3978 6.24786C53.7207 6.24786 54.7177 6.52834 55.3901 7.08931C56.1434 7.72349 56.5212 8.63026 56.5212 9.81076ZM55.2445 9.84343C55.2445 8.98396 55.0112 8.325 54.5444 7.86542C54.0777 7.40696 53.396 7.17717 52.4984 7.17717C52.1171 7.17717 51.7925 7.20195 51.5233 7.25377V12.7609C51.6723 12.7834 51.945 12.7936 52.3412 12.7936C53.2678 12.7936 53.9829 12.5424 54.4867 12.04C54.9904 11.5376 55.2445 10.8054 55.2445 9.84343Z" fill="white"/>
<path d="M63.2911 10.9688C63.2911 11.7854 63.052 12.4545 62.5737 12.9795C62.0723 13.519 61.408 13.7882 60.5784 13.7882C59.779 13.7882 59.1424 13.5303 58.6676 13.0121C58.1939 12.4951 57.957 11.8429 57.957 11.0566C57.957 10.2343 58.2008 9.55961 58.6907 9.03582C59.1805 8.51203 59.839 8.24957 60.6686 8.24957C61.468 8.24957 62.1104 8.50752 62.5968 9.02456C63.0589 9.52694 63.2911 10.1758 63.2911 10.9688ZM62.0353 11.0071C62.0353 10.5171 61.9267 10.0969 61.7106 9.7466C61.4565 9.32306 61.0949 9.11129 60.6247 9.11129C60.1383 9.11129 59.7686 9.32306 59.5144 9.7466C59.2972 10.0969 59.1898 10.5238 59.1898 11.0285C59.1898 11.5185 59.2984 11.9386 59.5144 12.289C59.7767 12.7125 60.1417 12.9243 60.6131 12.9243C61.0752 12.9243 61.438 12.7091 61.6991 12.2777C61.9232 11.9206 62.0353 11.4971 62.0353 11.0071Z" fill="white"/>
<path d="M72.3673 8.35767L70.6633 13.6677H69.5542L68.8483 11.3619C68.6692 10.7863 68.5236 10.214 68.4104 9.6463H68.3884C68.2833 10.2298 68.1377 10.8009 67.9506 11.3619L67.2008 13.6677H66.079L64.4766 8.35767H65.7208L66.3366 10.882C66.4856 11.479 66.6081 12.0479 66.7063 12.5863H66.7283C66.8184 12.1425 66.9674 11.577 67.1777 10.8933L67.9506 8.35879H68.9372L69.6778 10.8392C69.8569 11.4441 70.0024 12.0265 70.1145 12.5874H70.148C70.23 12.0411 70.3536 11.4587 70.5177 10.8392L71.1785 8.35879H72.3673V8.35767Z" fill="white"/>
<path d="M78.6429 13.6677H77.4321V10.6264C77.4321 9.68917 77.067 9.22058 76.3346 9.22058C75.9753 9.22058 75.6853 9.34899 75.46 9.60694C75.237 9.8649 75.1238 10.169 75.1238 10.5171V13.6666H73.913V9.87503C73.913 9.40869 73.898 8.90293 73.8691 8.35548H74.9332L74.9898 9.18566H75.0233C75.1642 8.92771 75.3745 8.71481 75.6506 8.54472C75.9787 8.34647 76.3461 8.24622 76.7482 8.24622C77.2565 8.24622 77.6794 8.40617 78.0155 8.7272C78.4338 9.12033 78.6429 9.7072 78.6429 10.4867V13.6677Z" fill="white"/>
<path d="M81.9811 13.6677H80.7715V5.9212H81.9811V13.6677Z" fill="white"/>
<path d="M89.1095 10.9688C89.1095 11.7854 88.8703 12.4545 88.392 12.9795C87.8906 13.519 87.2252 13.7882 86.3968 13.7882C85.5962 13.7882 84.9596 13.5303 84.4859 13.0121C84.0122 12.4951 83.7754 11.8429 83.7754 11.0566C83.7754 10.2343 84.0192 9.55961 84.509 9.03582C84.9989 8.51203 85.6574 8.24957 86.4858 8.24957C87.2864 8.24957 87.9276 8.50752 88.4151 9.02456C88.8773 9.52694 89.1095 10.1758 89.1095 10.9688ZM87.8525 11.0071C87.8525 10.5171 87.7439 10.0969 87.5278 9.7466C87.2748 9.32306 86.9121 9.11129 86.443 9.11129C85.9555 9.11129 85.5858 9.32306 85.3328 9.7466C85.1156 10.0969 85.0081 10.5238 85.0081 11.0285C85.0081 11.5185 85.1167 11.9386 85.3328 12.289C85.595 12.7125 85.9601 12.9243 86.4315 12.9243C86.8936 12.9243 87.2552 12.7091 87.5163 12.2777C87.7416 11.9206 87.8525 11.4971 87.8525 11.0071Z" fill="white"/>
<path d="M94.9711 13.6677H93.8839L93.7938 13.0561H93.7603C93.3883 13.5438 92.858 13.7882 92.1694 13.7882C91.6553 13.7882 91.2394 13.6272 90.9263 13.3072C90.6421 13.0166 90.5 12.655 90.5 12.2259C90.5 11.577 90.7773 11.0825 91.3353 10.7401C91.8922 10.3977 92.6755 10.2298 93.684 10.2377V10.1386C93.684 9.43908 93.3074 9.08989 92.553 9.08989C92.0158 9.08989 91.5421 9.22168 91.1331 9.48301L90.887 8.70803C91.3931 8.40277 92.0181 8.24957 92.7552 8.24957C94.1785 8.24957 94.8925 8.98175 94.8925 10.4461V12.4016C94.8925 12.9321 94.9191 13.3546 94.9711 13.6677ZM93.7141 11.8429V11.024C92.3785 11.0014 91.7108 11.3585 91.7108 12.0941C91.7108 12.3712 91.787 12.5784 91.943 12.717C92.099 12.8555 92.2977 12.9243 92.5345 12.9243C92.8002 12.9243 93.0486 12.842 93.2751 12.6787C93.5027 12.5142 93.6424 12.3058 93.6944 12.0501C93.7071 11.9927 93.7141 11.9229 93.7141 11.8429Z" fill="white"/>
<path d="M101.849 13.6677H100.775L100.718 12.815H100.685C100.342 13.4638 99.757 13.7882 98.9356 13.7882C98.2794 13.7882 97.7329 13.537 97.2997 13.0346C96.8664 12.5322 96.6504 11.88 96.6504 11.0791C96.6504 10.2197 96.8849 9.52353 97.3563 8.99185C97.8126 8.49622 98.3718 8.24841 99.0373 8.24841C99.7686 8.24841 100.28 8.48834 100.572 8.96932H100.595V5.9212H101.807V12.2371C101.807 12.7541 101.82 13.2306 101.849 13.6677ZM100.595 11.4283V10.5429C100.595 10.3898 100.583 10.2658 100.561 10.1712C100.493 9.88737 100.346 9.64856 100.123 9.45594C99.898 9.26332 99.6265 9.16645 99.3134 9.16645C98.8616 9.16645 98.5081 9.34105 98.2482 9.69137C97.9905 10.0417 97.86 10.4889 97.86 11.0352C97.86 11.5601 97.9836 11.9859 98.232 12.3137C98.4943 12.6629 98.8478 12.8375 99.2903 12.8375C99.6877 12.8375 100.005 12.6922 100.247 12.4004C100.48 12.1312 100.595 11.8068 100.595 11.4283Z" fill="white"/>
<path d="M112.205 10.9688C112.205 11.7854 111.966 12.4545 111.488 12.9795C110.986 13.519 110.323 13.7882 109.493 13.7882C108.694 13.7882 108.058 13.5303 107.582 13.0121C107.108 12.4951 106.871 11.8429 106.871 11.0566C106.871 10.2343 107.115 9.55961 107.605 9.03582C108.095 8.51203 108.753 8.24957 109.584 8.24957C110.382 8.24957 111.026 8.50752 111.511 9.02456C111.973 9.52694 112.205 10.1758 112.205 10.9688ZM110.951 11.0071C110.951 10.5171 110.842 10.0969 110.626 9.7466C110.371 9.32306 110.01 9.11129 109.539 9.11129C109.053 9.11129 108.684 9.32306 108.428 9.7466C108.211 10.0969 108.104 10.5238 108.104 11.0285C108.104 11.5185 108.212 11.9386 108.428 12.289C108.691 12.7125 109.056 12.9243 109.527 12.9243C109.989 12.9243 110.353 12.7091 110.614 12.2777C110.837 11.9206 110.951 11.4971 110.951 11.0071Z" fill="white"/>
<path d="M118.714 13.6677H117.504V10.6264C117.504 9.68917 117.139 9.22058 116.406 9.22058C116.046 9.22058 115.756 9.34899 115.532 9.60694C115.308 9.8649 115.196 10.169 115.196 10.5171V13.6666H113.984V9.87503C113.984 9.40869 113.97 8.90293 113.941 8.35548H115.004L115.061 9.18566H115.094C115.237 8.92771 115.447 8.71481 115.722 8.54472C116.051 8.34647 116.417 8.24622 116.82 8.24622C117.328 8.24622 117.75 8.40617 118.087 8.7272C118.506 9.12033 118.714 9.7072 118.714 10.4867V13.6677Z" fill="white"/>
<path d="M126.864 9.24196H125.531V11.8215C125.531 12.4771 125.767 12.8049 126.236 12.8049C126.454 12.8049 126.634 12.7868 126.776 12.7497L126.807 13.6452C126.568 13.733 126.254 13.777 125.867 13.777C125.388 13.777 125.016 13.635 124.747 13.3512C124.477 13.0673 124.343 12.5897 124.343 11.9195V9.24196H123.547V8.35771H124.343V7.38447L125.529 7.03528V8.35658H126.863V9.24196H126.864Z" fill="white"/>
<path d="M133.275 13.6677H132.063V10.6488C132.063 9.697 131.698 9.22052 130.966 9.22052C130.405 9.22052 130.021 9.49649 129.811 10.0484C129.775 10.1645 129.755 10.3064 129.755 10.4731V13.6665H128.545V5.9212H129.755V9.12139H129.778C130.159 8.53903 130.705 8.24841 131.414 8.24841C131.915 8.24841 132.33 8.40836 132.659 8.72939C133.069 9.12928 133.275 9.72403 133.275 10.5103V13.6677Z" fill="white"/>
<path d="M139.885 10.7615C139.885 10.9732 139.869 11.1512 139.84 11.2965H136.209C136.225 11.8214 136.398 12.2213 136.734 12.4984C137.042 12.7462 137.438 12.8701 137.923 12.8701C138.46 12.8701 138.95 12.7868 139.392 12.6189L139.581 13.439C139.065 13.6575 138.457 13.7668 137.753 13.7668C136.91 13.7668 136.246 13.5246 135.765 13.0402C135.282 12.5559 135.043 11.9059 135.043 11.0904C135.043 10.2895 135.266 9.62264 135.715 9.09096C136.184 8.52324 136.819 8.23938 137.619 8.23938C138.403 8.23938 138.998 8.52324 139.4 9.09096C139.724 9.54153 139.885 10.0991 139.885 10.7615ZM138.73 10.4562C138.739 10.1059 138.659 9.80399 138.495 9.54942C138.285 9.22163 137.965 9.05717 137.532 9.05717C137.136 9.05717 136.814 9.21712 136.568 9.53815C136.367 9.79385 136.248 10.0991 136.209 10.4562H138.73Z" fill="white"/>
<path d="M61.8276 34.0234H59.2039L57.7667 29.6202H52.7711L51.4021 34.0234H48.8477L53.797 19.0328H56.854L61.8276 34.0234ZM57.3334 27.7728L56.0337 23.8585C55.8962 23.4586 55.6386 22.5169 55.2585 21.0345H55.2123C55.0609 21.6721 54.8172 22.6138 54.4821 23.8585L53.2055 27.7728H57.3334Z" fill="white"/>
<path d="M74.5552 28.4859C74.5552 30.3242 74.0457 31.7773 73.0267 32.8441C72.114 33.7937 70.9806 34.2679 69.6277 34.2679C68.1674 34.2679 67.1184 33.7565 66.4795 32.7337H66.4333V38.4278H63.9702V26.7726C63.9702 25.6169 63.939 24.4308 63.8789 23.2142H66.0451L66.1826 24.9275H66.2288C67.0502 23.6366 68.2968 22.9923 69.9697 22.9923C71.2775 22.9923 72.3693 23.4958 73.2427 24.504C74.1184 25.5133 74.5552 26.8402 74.5552 28.4859ZM72.0458 28.5738C72.0458 27.5217 71.8032 26.6543 71.3157 25.9717C70.7831 25.2598 70.0679 24.9039 69.1714 24.9039C68.5637 24.9039 68.0115 25.1021 67.5181 25.493C67.0237 25.8872 66.7002 26.402 66.5488 27.0396C66.4726 27.337 66.4345 27.5803 66.4345 27.7718V29.574C66.4345 30.3603 66.6817 31.0238 67.1762 31.5656C67.6706 32.1074 68.313 32.3777 69.1032 32.3777C70.0309 32.3777 70.753 32.0285 71.2694 31.3324C71.787 30.6351 72.0458 29.716 72.0458 28.5738Z" fill="white"/>
<path d="M87.306 28.4859C87.306 30.3242 86.7965 31.7773 85.7763 32.8441C84.8648 33.7937 83.7314 34.2679 82.3785 34.2679C80.9182 34.2679 79.8692 33.7565 79.2315 32.7337H79.1853V38.4278H76.7221V26.7726C76.7221 25.6169 76.6909 24.4308 76.6309 23.2142H78.7971L78.9346 24.9275H78.9808C79.801 23.6366 81.0476 22.9923 82.7217 22.9923C84.0283 22.9923 85.1201 23.4958 85.9958 24.504C86.8681 25.5133 87.306 26.8402 87.306 28.4859ZM84.7966 28.5738C84.7966 27.5217 84.5528 26.6543 84.0653 25.9717C83.5327 25.2598 82.8199 24.9039 81.9222 24.9039C81.3133 24.9039 80.7623 25.1021 80.2678 25.493C79.7733 25.8872 79.451 26.402 79.2996 27.0396C79.2245 27.337 79.1853 27.5803 79.1853 27.7718V29.574C79.1853 30.3603 79.4325 31.0238 79.9247 31.5656C80.4191 32.1063 81.0615 32.3777 81.854 32.3777C82.7818 32.3777 83.5038 32.0285 84.0202 31.3324C84.5378 30.6351 84.7966 29.716 84.7966 28.5738Z" fill="white"/>
<path d="M101.562 29.8196C101.562 31.0947 101.108 32.1321 100.196 32.933C99.1945 33.8083 97.8 34.2453 96.0081 34.2453C94.3537 34.2453 93.0274 33.9344 92.0234 33.3115L92.5942 31.3099C93.6755 31.9474 94.862 32.2673 96.1548 32.2673C97.0826 32.2673 97.8046 32.0623 98.3234 31.6545C98.8398 31.2468 99.0974 30.6993 99.0974 30.0167C99.0974 29.4084 98.8848 28.8959 98.4585 28.4803C98.0345 28.0646 97.3263 27.6782 96.3374 27.3212C93.6455 26.3423 92.3007 24.9083 92.3007 23.0227C92.3007 21.7904 92.7721 20.78 93.716 19.9937C94.6564 19.2064 95.9111 18.8132 97.48 18.8132C98.8791 18.8132 100.041 19.0509 100.969 19.5251L100.353 21.4829C99.4868 21.0233 98.5071 20.7935 97.4107 20.7935C96.5442 20.7935 95.8672 21.0019 95.3819 21.4164C94.9718 21.787 94.7662 22.2387 94.7662 22.7738C94.7662 23.3663 95.0007 23.8563 95.472 24.2415C95.8822 24.5975 96.6274 24.9827 97.7087 25.3983C99.0316 25.9176 100.003 26.5248 100.628 27.2209C101.251 27.9148 101.562 28.7833 101.562 29.8196Z" fill="white"/>
<path d="M109.707 25.0165H106.992V30.2645C106.992 31.5993 107.47 32.2662 108.429 32.2662C108.869 32.2662 109.234 32.229 109.523 32.1546L109.591 33.9783C109.106 34.1552 108.467 34.2442 107.676 34.2442C106.703 34.2442 105.943 33.9547 105.394 33.3768C104.847 32.7978 104.573 31.8269 104.573 30.4628V25.0142H102.955V23.2119H104.573V21.2328L106.992 20.5209V23.2119H109.707V25.0165Z" fill="white"/>
<path d="M121.956 28.5298C121.956 30.1913 121.469 31.5554 120.496 32.6221C119.476 33.7204 118.122 34.2679 116.434 34.2679C114.807 34.2679 113.512 33.7418 112.546 32.6897C111.581 31.6376 111.098 30.3096 111.098 28.7089C111.098 27.0339 111.594 25.6619 112.591 24.5952C113.586 23.5273 114.929 22.9934 116.617 22.9934C118.243 22.9934 119.552 23.5195 120.54 24.5727C121.485 25.5943 121.956 26.9134 121.956 28.5298ZM119.401 28.6075C119.401 27.6106 119.183 26.7557 118.74 26.0427C118.224 25.1798 117.485 24.7495 116.529 24.7495C115.539 24.7495 114.787 25.1809 114.27 26.0427C113.828 26.7568 113.609 27.6253 113.609 28.6526C113.609 29.6495 113.828 30.5044 114.27 31.2163C114.803 32.0792 115.547 32.5095 116.507 32.5095C117.447 32.5095 118.186 32.0702 118.718 31.1938C119.172 30.4673 119.401 29.6033 119.401 28.6075Z" fill="white"/>
<path d="M129.965 25.3263C129.721 25.2823 129.461 25.2598 129.188 25.2598C128.322 25.2598 127.652 25.5786 127.18 26.2173C126.77 26.7805 126.565 27.4924 126.565 28.3519V34.0234H124.103L124.126 26.6183C124.126 25.3725 124.094 24.2381 124.033 23.2153H126.179L126.269 25.2835H126.337C126.597 24.5727 127.007 24.0005 127.568 23.5713C128.117 23.1849 128.71 22.9923 129.349 22.9923C129.576 22.9923 129.782 23.0081 129.965 23.0362V25.3263Z" fill="white"/>
<path d="M140.979 28.1074C140.979 28.5377 140.951 28.9004 140.889 29.1967H133.5C133.529 30.2646 133.886 31.0812 134.572 31.6444C135.195 32.1479 136 32.4003 136.989 32.4003C138.083 32.4003 139.081 32.2302 139.979 31.8889L140.365 33.556C139.316 34.0021 138.077 34.224 136.648 34.224C134.929 34.224 133.58 33.7306 132.598 32.745C131.618 31.7593 131.127 30.4358 131.127 28.7754C131.127 27.1455 131.583 25.7881 132.497 24.7056C133.454 23.5499 134.747 22.972 136.373 22.972C137.971 22.972 139.181 23.5499 140.002 24.7056C140.652 25.6237 140.979 26.7591 140.979 28.1074ZM138.631 27.4845C138.647 26.7726 138.486 26.1576 138.152 25.6383C137.726 24.9703 137.071 24.6369 136.19 24.6369C135.384 24.6369 134.729 24.9624 134.229 25.6158C133.819 26.1351 133.575 26.758 133.5 27.4834H138.631V27.4845Z" fill="white"/>
</svg>
